<?xml version="1.0" encoding="UTF-8"?>
<svg width="60px" height="55px" viewBox="0 0 60 55" version="1.1" xmlns="http://www.w3.org/2000/svg" xmlns:xlink="http://www.w3.org/1999/xlink">
    <!-- Generator: Sketch 42 (36781) - http://www.bohemiancoding.com/sketch -->
    <title>Group 4</title>
    <desc>Created with Sketch.</desc>
    <defs>
        <polygon id="path-1" points="0.000152655921 54.9771951 59.882 54.9771951 59.882 6.70731706e-05 0.000152655921 6.70731706e-05 0.000152655921 54.9771951"></polygon>
    </defs>
    <g id="Page-1" stroke="none" stroke-width="1" fill="none" fill-rule="evenodd">
        <g id="teenused-copy-4" transform="translate(-1255.000000, -2247.000000)">
            <g id="Group-4" transform="translate(1255.000000, 2247.000000)">
                <g id="Page-1-Copy-8">
                    <mask id="mask-2" fill="white">
                        <use xlink:href="#path-1"></use>
                    </mask>
                    <g id="Clip-2"></g>
                    <path d="M3.0868,33.9129329 C3.72546667,33.16775 5.68146667,32.0234817 11.6081333,31.580128 C12.6561333,33.5896402 13.4588,35.5193354 13.4601333,38.052689 C13.4601333,41.1333598 12.9048,43.8042134 12.1194667,46.0209817 L6.64813333,46.0209817 C5.8588,45.0007988 3.79813333,41.7732378 2.79413333,34.9156768 C2.73613333,34.5192744 2.8228,34.2194573 3.0868,33.9129329 L3.0868,33.9129329 Z M21.8581333,31.4962866 C22.9274667,33.5359817 23.7534667,35.4837866 23.7548,38.052689 C23.7548,41.1333598 23.1994667,43.8042134 22.4141333,46.0209817 L15.0601333,46.0209817 C15.7541333,43.7934817 16.2401333,41.1454329 16.2401333,38.0520183 C16.2388,35.4388476 15.5361333,33.342811 14.6368,31.4292134 C15.4148,31.40775 16.2401333,31.3956768 17.1248,31.3956768 C18.6728,31.3956768 20.2648,31.4325671 21.8581333,31.4962866 L21.8581333,31.4962866 Z M42.3434667,33.3770183 C42.7254667,33.432689 43.1154667,33.3247012 43.4168,33.0798841 C43.7174667,32.8350671 43.9028,32.4748841 43.9281333,32.0865305 C45.6861333,5.65031098 51.8674667,2.79634756 54.4434667,2.79634756 C55.4554667,2.79634756 56.3414667,3.17329878 56.9128,3.49457927 L46.5568,46.0209817 L35.6488,46.0209817 C36.3421333,43.7934817 36.8288,41.1454329 36.8288,38.0520183 C36.8281333,35.9445793 36.3668,34.1758598 35.7194667,32.5640915 C39.6334667,32.9886646 42.2848,33.3682988 42.3434667,33.3770183 L42.3434667,33.3770183 Z M25.3541333,46.0209817 C26.0481333,43.7934817 26.5341333,41.1454329 26.5341333,38.0520183 C26.5328,35.5407988 25.8841333,33.5057988 25.0361333,31.6532378 C27.6621333,31.8088476 30.2194667,32.0194573 32.5321333,32.240128 C33.4101333,34.0209207 34.0474667,35.7970183 34.0488,38.0533598 C34.0488,41.1340305 33.4934667,43.8048841 32.7081333,46.0216524 L25.3541333,46.0216524 L25.3541333,46.0209817 Z M5.07346667,48.4436646 C5.3308,48.6837866 5.66946667,48.8179329 6.01946667,48.8179329 L10.9014667,48.8179329 C9.9868,50.5511037 8.9928,51.822811 8.21213333,52.5606159 C7.6528,53.0898232 7.62546667,53.9738476 8.1508,54.5365915 C8.4248,54.8297012 8.79413333,54.9772622 9.16346667,54.9772622 C9.50546667,54.9772622 9.8468,54.8511646 10.1161333,54.5982988 C10.4721333,54.2615915 12.4008,52.3339085 14.0008,48.8179329 L21.1961333,48.8179329 C20.2814667,50.5511037 19.2874667,51.822811 18.5068,52.5606159 C17.9474667,53.0898232 17.9201333,53.9738476 18.4454667,54.5365915 C18.7194667,54.8297012 19.0888,54.9772622 19.4581333,54.9772622 C19.8001333,54.9772622 20.1414667,54.8511646 20.4108,54.5982988 C20.7668,54.2615915 22.6954667,52.3339085 24.2948,48.8179329 L31.4901333,48.8179329 C30.5748,50.5511037 29.5814667,51.822811 28.8008,52.5606159 C28.2414667,53.0898232 28.2141333,53.9738476 28.7388,54.5365915 C29.0128,54.8297012 29.3821333,54.9772622 29.7521333,54.9772622 C30.0941333,54.9772622 30.4354667,54.8511646 30.7048,54.5982988 C31.0601333,54.2615915 32.9894667,52.3339085 34.5888,48.8179329 L47.6468,48.8179329 C48.2874667,48.8179329 48.8441333,48.3779329 48.9961333,47.752811 L59.8421333,3.21287195 C59.9674667,2.70043293 59.7948,2.1604939 59.3961333,1.81775 C59.3108,1.74329878 57.2521333,6.70731706e-05 54.4434667,6.70731706e-05 C47.2101333,6.70731706e-05 42.7768,10.2280549 41.2608,30.4083598 C39.7881333,30.2158598 37.3134667,29.9100061 34.3014667,29.6041524 C34.1748,29.3667134 34.0468,29.1292744 33.9194667,28.8945183 C32.3641333,26.0325061 30.7668,23.0806159 30.8921333,18.3707378 C31.3594667,18.8234817 32.0948,18.8965915 32.6474667,18.5095793 C33.2781333,18.0682378 33.4328,17.1962866 32.9948,16.5631159 L30.6294667,13.1484207 C30.3694667,12.7734817 29.9448,12.5494573 29.4901333,12.5494573 C29.0354667,12.5494573 28.6094667,12.772811 28.3494667,13.1484207 L25.9848,16.5631159 C25.5461333,17.1962866 25.7008,18.0682378 26.3301333,18.5095793 C26.5728,18.6792744 26.8508,18.7611037 27.1241333,18.7611037 C27.4894667,18.7611037 27.8454667,18.6081768 28.1128,18.3331768 C27.9861333,23.2107378 29.4648,26.465128 30.9708,29.2889085 C28.6334667,29.0843354 26.1114667,28.8985427 23.5588,28.7717744 C22.0261333,25.9479939 20.4741333,23.0142134 20.5981333,18.3707378 C21.0654667,18.8234817 21.8008,18.8965915 22.3534667,18.5095793 C22.9841333,18.0682378 23.1388,17.1962866 22.7008,16.5631159 L20.3361333,13.1484207 C20.0754667,12.7734817 19.6514667,12.5494573 19.1961333,12.5494573 C18.7414667,12.5494573 18.3154667,12.772811 18.0554667,13.1484207 L15.6908,16.5631159 C15.2521333,17.1962866 15.4068,18.0682378 16.0368,18.5095793 C16.2794667,18.6792744 16.5568,18.7611037 16.8308,18.7611037 C17.1968,18.7611037 17.5521333,18.6081768 17.8194667,18.3331768 C17.7014667,22.8458598 18.9594667,25.9681159 20.3401333,28.6463476 C19.2581333,28.6168354 18.1814667,28.5993963 17.1254667,28.5993963 C15.7268,28.5993963 14.4328,28.6289085 13.2174667,28.6839085 C11.6994667,25.8869573 10.1814667,22.9659207 10.3048,18.3714085 C10.7721333,18.8241524 11.5074667,18.8972622 12.0601333,18.51025 C12.6908,18.0689085 12.8454667,17.1969573 12.4074667,16.5637866 L10.0428,13.1490915 C9.7828,12.7741524 9.35813333,12.550128 8.9028,12.550128 C8.44813333,12.550128 8.02213333,12.7734817 7.76213333,13.1490915 L5.39746667,16.5637866 C4.9588,17.1969573 5.11346667,18.0689085 5.74346667,18.51025 C5.98613333,18.6799451 6.26346667,18.7617744 6.53746667,18.7617744 C6.90346667,18.7617744 7.2588,18.6088476 7.5268,18.3338476 C7.4048,22.9860427 8.74413333,26.162628 10.1754667,28.8965305 C5.40546667,29.3673841 2.42346667,30.4097012 0.985466667,32.085189 C0.1948,33.0054329 -0.1292,34.1255549 0.0468,35.3241524 C1.45546667,44.9665915 4.92613333,48.3054939 5.07346667,48.4436646 L5.07346667,48.4436646 Z" id="Fill-1" fill="#FFFFFF" mask="url(#mask-2)"></path>
                </g>
                <circle id="Oval" fill="#FFFFFF" cx="48.5" cy="48.5" r="6.5"></circle>
                <text id="3" font-family="GothamPro-Black, Gotham Pro" font-size="9" font-weight="700" line-spacing="36.328125" fill="#0D0F2E">
                    <tspan x="46" y="37">3</tspan>
                </text>
            </g>
        </g>
    </g>
</svg>