<?xml version="1.0" encoding="UTF-8"?>
<svg width="58px" height="68px" viewBox="0 0 58 68" version="1.1" xmlns="http://www.w3.org/2000/svg" xmlns:xlink="http://www.w3.org/1999/xlink">
    <!-- Generator: Sketch 42 (36781) - http://www.bohemiancoding.com/sketch -->
    <title>Page 1</title>
    <desc>Created with Sketch.</desc>
    <defs>
        <polygon id="path-1" points="28.8898934 0 57.7797468 0 57.7797468 68 28.8898934 68 3.98878583e-05 68 3.98878583e-05 0 28.8898934 0"></polygon>
    </defs>
    <g id="Page-1" stroke="none" stroke-width="1" fill="none" fill-rule="evenodd">
        <g id="teenused-copy-4" transform="translate(-170.000000, -2243.000000)">
            <g id="Page-1" transform="translate(170.000000, 2243.000000)">
                <mask id="mask-2" fill="white">
                    <use xlink:href="#path-1"></use>
                </mask>
                <g id="Clip-2"></g>
                <path d="M26.8915165,65.8064516 L31.0124532,65.8064516 C34.2744025,61.2504516 38.4327823,58.7424946 43.3759975,58.352043 C46.6702506,58.0763871 49.2442759,58.8777634 49.8815418,59.100043 L55.0685038,51.3202581 C54.070757,50.9276129 52.1552886,49.7818495 50.3462759,47.7403871 C47.239238,44.1817204 45.6658962,39.4626667 45.6658962,33.7075269 C45.6658962,28.0562151 47.3089848,22.7317419 50.4174911,18.3088172 C52.438681,15.4513548 54.4628076,13.8529892 55.0729089,13.4062366 C54.3930608,12.4469247 50.9460987,7.58309677 49.8668582,6.05053763 C47.400757,7.4968172 45.1835418,8.38227957 43.2710101,8.68791398 C41.5559722,8.94163441 40.0097949,8.75591398 38.7859215,8.14683871 C35.6128076,6.60696774 34.8389848,2.71634409 34.748681,2.19354839 L23.0363519,2.19354839 C22.9078709,3.22378495 22.0305291,6.78172043 19.0578456,8.22507527 C16.2679722,9.56898925 12.6470101,8.85901075 7.98571899,6.052 C7.39323797,6.90455914 6.12678228,8.75445161 4.9822,10.4237419 C3.59460506,12.4498495 3.03295949,13.2702366 2.78187089,13.6255914 C3.37214937,14.0555269 5.40141519,15.6421935 7.4277443,18.4426237 C9.59797215,21.4236559 12.1881494,26.5068387 12.1881494,33.7806452 C12.1881494,39.6132903 10.6118709,44.3352688 7.50483291,47.8164301 C5.52182025,50.0553118 3.46685823,51.092129 2.81123797,51.3846022 L7.96809873,59.0291183 C8.66923797,58.7819785 11.1595671,58.0076559 14.4083013,58.2789247 C19.341238,58.6627957 23.5422,61.1948817 26.8915165,65.8064516 M31.3494405,68 L26.3570354,68 C26.0229848,68 25.7072886,67.8486452 25.4980481,67.5890753 L25.203643,67.2227527 C22.162681,62.9994409 18.5850354,60.8044301 14.2306304,60.4651613 C11.0303519,60.2019355 8.6523519,61.1129892 8.62959241,61.1232258 L8.00921266,61.3981505 C7.52025063,61.6123871 6.94685823,61.4486022 6.64878228,61.0076989 L0.187288608,51.4292043 C-0.00433164557,51.144043 -0.0520531646,50.7872258 0.0588075949,50.4633118 C0.170402532,50.1386667 0.42663038,49.8856774 0.752605063,49.7767312 L1.85387089,49.4111398 C1.84946582,49.4111398 3.89121266,48.5790538 5.85587089,46.3628387 C8.59655443,43.291871 9.98561772,39.0597849 9.98561772,33.7806452 C9.98561772,27.0954409 7.62376962,22.448043 5.64295949,19.7273118 C3.52192152,16.7974624 1.38473165,15.3255914 1.36344051,15.3109677 L0.616782278,14.7910968 C0.118275949,14.4437849 -0.00286329114,13.7593978 0.346605063,13.2636559 L0.860529114,12.5324731 C0.872275949,12.5156559 0.884022785,12.4995699 0.897237975,12.4834839 C1.04701013,12.2765591 2.12257975,10.7074409 3.16364304,9.18731183 C4.36549114,7.43247312 5.70463038,5.47875269 6.29123797,4.63862366 L6.83966835,3.93376344 C7.18032658,3.49505376 7.79630127,3.37952688 8.27645316,3.66615054 L9.01063038,4.10486022 C12.9884025,6.52288172 16.0433139,7.24309677 18.0953392,6.25234409 C20.2707063,5.19578495 20.7941747,2.2695914 20.8507063,1.90473118 L20.8507063,1.09677419 C20.8507063,0.491354839 21.3440734,0 21.9519722,0 L35.6818203,0 C36.2199722,0 36.6795671,0.387526882 36.7676684,0.916172043 L36.9145038,1.7935914 C36.9218456,1.83746237 37.4636684,5.06563441 39.7609089,6.17922581 C40.5868582,6.59088172 41.6815165,6.70713978 42.9332886,6.51995699 C44.5881241,6.256 46.5821494,5.44146237 48.8485544,4.10193548 L49.5775924,3.66615054 C50.0577443,3.37952688 50.673719,3.49505376 51.0143772,3.93376344 L51.5283013,4.59182796 C52.5884532,6.09733333 56.9913139,12.3094624 56.9913139,12.3094624 L57.5074405,13.0443011 C57.8569089,13.5407742 57.7357696,14.2244301 57.2372633,14.5717419 L56.5030861,15.0835699 C56.4693139,15.1062366 54.3365291,16.5766452 52.2198962,19.5701075 C49.3734911,23.6186667 47.8684278,28.508086 47.8684278,33.7075269 C47.8684278,38.9179355 49.2596937,43.1536774 52.0033139,46.2948387 C53.9129089,48.4503656 55.7534911,49.2429677 55.9524532,49.324129 C55.9979722,49.3372903 56.0420228,49.351914 56.0853392,49.3701935 L57.1124532,49.8089032 C57.4061241,49.9346667 57.6315165,50.1818065 57.7284278,50.4859785 C57.8253392,50.7894194 57.7842253,51.1206452 57.6168329,51.391914 L57.0294911,52.3424516 L51.2089342,61.0756989 C50.9115924,61.5209892 50.3367316,61.6891613 49.8433646,61.4705376 L49.1826051,61.1780645 L49.1833392,61.1780645 C49.1782,61.1780645 46.7407316,60.2743226 43.5544025,60.5382796 C39.2308329,60.8797419 35.5775671,63.1347097 32.6922506,67.2395699 C32.6144278,67.3507097 32.5153139,67.4472258 32.4015165,67.5232688 L31.9602759,67.8157419 C31.7796684,67.9356559 31.566757,68 31.3494405,68" id="Fill-1" fill="#FFFFFF" mask="url(#mask-2)"></path>
            </g>
        </g>
    </g>
</svg>