<?xml version="1.0" encoding="UTF-8"?>
<svg width="50px" height="61px" viewBox="0 0 50 61" version="1.1" xmlns="http://www.w3.org/2000/svg" xmlns:xlink="http://www.w3.org/1999/xlink">
    <!-- Generator: Sketch 42 (36781) - http://www.bohemiancoding.com/sketch -->
    <title>Page 1</title>
    <desc>Created with Sketch.</desc>
    <defs>
        <polygon id="path-1" points="2.2970385e-20 -5.99439271e-06 2.2970385e-20 60.5770667 49.7144068 60.5770667 49.7144068 -5.99439271e-06 0 -5.99439272e-06"></polygon>
    </defs>
    <g id="Page-1" stroke="none" stroke-width="1" fill="none" fill-rule="evenodd">
        <g id="teenused-copy-4" transform="translate(-1260.000000, -2079.000000)">
            <g id="Page-1" transform="translate(1260.000000, 2079.000000)">
                <mask id="mask-2" fill="white">
                    <use xlink:href="#path-1"></use>
                </mask>
                <g id="Clip-2"></g>
                <path d="M32.8705932,54.9584583 C27.5790678,54.0375278 18.9544915,54.7924028 16.9807627,54.9855694 C15.8824576,54.0426111 14.8705932,52.96325 13.9816102,51.77375 C17.6985593,51.5433056 27.7036441,51.0468333 35.7926271,51.7381667 C34.9205932,52.9412222 33.9383898,54.0214306 32.8705932,54.9584583 M24.8578814,58.8675417 C22.8502542,58.5252639 20.8612712,57.7026111 19.0239831,56.5122639 C21.9265254,56.2902917 27.0519492,56.0124028 30.9688983,56.4114444 C29.0841525,57.6644861 27.0129661,58.5125556 24.8578814,58.8675417 M20.3180508,26.2791389 C21.0621186,27.0009722 23.0561864,28.7564167 24.8578814,28.7564167 C26.6587288,28.7564167 28.6511017,27.0018194 29.3951695,26.2791389 C30.1273729,26.3553889 32.0383898,26.7908611 33.8290678,29.1283472 C26.175678,32.58925 18.4900847,30.1246806 15.9104237,29.0953056 C17.6968644,26.7823889 19.5968644,26.3536944 20.3180508,26.2791389 M20.1163559,22.4818889 C20.4866949,21.4126944 21.3019492,20.54175 21.7816102,20.0969583 C22.4773729,20.4011111 23.744322,20.8764028 24.8578814,20.8764028 C25.9688983,20.8764028 27.2366949,20.4011111 27.9333051,20.0978056 C28.4129661,20.5434444 29.2307627,21.418625 29.5994068,22.4818889 C30.0121186,23.6739306 28.6011017,24.7024583 28.5705932,24.7236389 C28.5460169,24.7405833 28.535,24.766 28.5129661,24.7846389 C28.4909322,24.8032778 28.4629661,24.8134444 28.4426271,24.834625 C27.894322,25.4124306 26.0587288,27.0619722 24.8578814,27.0619722 C23.7900847,27.0619722 22.0909322,25.6954028 21.2705932,24.8337778 C21.2502542,24.81175 21.2205932,24.8007361 21.1985593,24.78125 C21.1765254,24.7634583 21.164661,24.7388889 21.1409322,24.7219444 C21.1273729,24.7117778 19.7019492,23.6781667 20.1163559,22.4818889 M24.8578814,15.0737778 C26.4502542,15.0737778 26.9917797,17.4714167 27.1570339,18.5863611 C26.5299153,18.8523889 25.5841525,19.1819583 24.8578814,19.1819583 C24.1307627,19.1819583 23.1858475,18.8532361 22.5587288,18.5872083 C22.7248305,17.4722639 23.2655085,15.0737778 24.8578814,15.0737778 M13.2197458,34.5124444 C13.5527966,33.6347222 13.9239831,32.7290417 14.335,31.7954028 C14.5366949,31.33875 14.7477119,30.9295417 14.9629661,30.5449028 C16.5214407,31.2108194 20.4197458,32.6358472 25.2536441,32.6358472 C28.1866949,32.6358472 31.4604237,32.0970139 34.7578814,30.5542222 C34.9705932,30.9363194 35.1807627,31.3421389 35.3799153,31.7954028 C35.7917797,32.7307361 36.1638136,33.6364167 36.4960169,34.5158333 C26.0655085,36.7016667 16.2248305,35.1080417 13.2197458,34.5124444 M11.7383898,39.3009444 C11.9722881,38.2935972 12.2748305,37.2354167 12.6460169,36.1289444 C14.4248305,36.5034167 19.105339,37.34725 25.1036441,37.34725 C28.7290678,37.34725 32.8366949,37.0303889 37.0672034,36.1221667 C37.4451695,37.2472778 37.7527966,38.32325 37.9883898,39.3466944 C27.4739831,41.0699444 14.9900847,39.711 11.7383898,39.3009444 M11.2112712,45.4043333 C11.0765254,44.0733472 11.1417797,42.59325 11.4087288,40.9665833 C13.4095763,41.2215972 19.3172034,41.8909028 26.1460169,41.8909028 C30.0909322,41.8909028 34.3324576,41.6502917 38.3112712,40.9936944 C38.5731356,42.6034167 38.6383898,44.0691111 38.505339,45.3890833 C26.8790678,43.75225 14.5095763,45.0112222 11.2112712,45.4043333 M37.5527966,48.8474444 C37.3299153,49.2888472 37.0892373,49.7158472 36.8409322,50.134375 C27.6172034,49.2253056 15.5061864,49.9674722 12.8900847,50.1462361 C12.6341525,49.7217778 12.3866949,49.2922361 12.1621186,48.8474444 C11.8858475,48.3009861 11.6722881,47.7053889 11.5078814,47.0750556 C14.8536441,46.6794028 26.8926271,45.4755 38.2112712,47.0589583 C38.0460169,47.6960694 37.8316102,48.2959028 37.5527966,48.8474444 M49.2544915,39.2789167 L45.7570339,37.4802639 L40.2672034,28.5581667 C40.1129661,28.3073889 39.8400847,28.1548889 39.5451695,28.1548889 L35.2172034,28.1548889 C33.6663559,26.1088472 31.9799153,25.2243472 30.755339,24.8490278 C30.8672034,24.682125 30.9731356,24.5016667 31.0638136,24.3068056 L35.7205932,23.1689861 C36.1722881,23.0588472 36.4519492,22.6047361 36.3451695,22.1514722 L34.2587288,13.3022361 L36.2188983,10.4335417 C36.4841525,10.0472083 36.3841525,9.52023611 35.9977119,9.25590278 C35.6104237,8.99241667 35.0841525,9.09154167 34.8205932,9.477875 L32.6485593,12.6549583 C32.5138136,12.8515139 32.4680508,13.0955139 32.5231356,13.3268056 L34.5019492,21.7227778 L31.3366949,22.4962917 C31.3087288,22.3115972 31.2688983,22.1226667 31.2011017,21.9278056 C30.6536441,20.3468889 29.4511017,19.1658611 28.885,18.6744722 C28.7994068,17.8136944 28.5799153,16.7834722 28.1621186,15.8608472 C30.8434746,12.0525833 37.3299153,3.13218056 39.425678,1.51906944 C39.7977119,1.23440278 39.8663559,0.702347222 39.5816102,0.331263889 C39.2960169,-0.0398194444 38.7638136,-0.110138889 38.3934746,0.176222222 C35.9875424,2.02570833 29.3129661,11.307875 27.1544915,14.35025 C26.5705932,13.7639722 25.8205932,13.3793333 24.8578814,13.3793333 C23.8951695,13.3793333 23.144322,13.7639722 22.5612712,14.35025 C20.4027966,11.307875 13.7273729,2.02570833 11.3214407,0.176222222 C10.9511017,-0.110138889 10.4188983,-0.0398194444 10.1333051,0.331263889 C9.84855932,0.702347222 9.91720339,1.23440278 10.2892373,1.51906944 C12.3858475,3.13218056 18.8714407,12.0525833 21.5536441,15.8608472 C21.1358475,16.7834722 20.9163559,17.8136944 20.8299153,18.6744722 C20.264661,19.1658611 19.0621186,20.3468889 18.514661,21.9278056 C18.4468644,22.1226667 18.4070339,22.3115972 18.3782203,22.4971389 L15.2129661,21.7227778 L17.1917797,13.3268056 C17.2460169,13.0955139 17.2011017,12.8515139 17.0663559,12.6549583 L14.894322,9.477875 C14.6316102,9.09154167 14.1036441,8.99241667 13.7163559,9.25590278 C13.3299153,9.52023611 13.2307627,10.0472083 13.4960169,10.4335417 L15.4561864,13.3022361 L13.3697458,22.1514722 C13.2629661,22.6047361 13.5417797,23.0588472 13.994322,23.1689861 L18.6519492,24.3068056 C18.7426271,24.5016667 18.8477119,24.6812778 18.9595763,24.8473333 C17.7341525,25.2226528 16.0477119,26.1063056 14.4977119,28.1548889 L10.1697458,28.1548889 C9.87483051,28.1548889 9.60194915,28.3073889 9.44771186,28.5581667 L3.95788136,37.4802639 L0.460423729,39.2789167 C0.0443220339,39.4924167 -0.120084746,40.0032917 0.0934745763,40.4192778 C0.244322034,40.7115694 0.540932203,40.8793194 0.848559322,40.8793194 C0.978220339,40.8793194 1.11042373,40.8488194 1.235,40.7852778 L4.94262712,38.8790278 C5.08076271,38.8087083 5.19601695,38.7019583 5.27652542,38.5697917 L10.6426271,29.8493333 L13.4070339,29.8493333 C13.1926271,30.2424444 12.9841525,30.6584306 12.7841525,31.1125417 C12.1994068,32.4384444 11.6994068,33.7033472 11.2672034,34.9199583 C11.2663559,34.9250417 11.2621186,34.9284306 11.2612712,34.9335139 C11.2604237,34.9352083 11.2612712,34.9369028 11.2604237,34.9385972 C11.2002542,35.1105833 11.1333051,35.2868056 11.075678,35.45625 L7.50279661,36.46275 C7.1409322,36.5652639 6.88923729,36.8948333 6.88584746,37.2718472 C6.88161017,37.7945833 6.79347458,49.7336389 7.47144068,53.5291944 L5.10788136,57.3086528 C4.85957627,57.706 4.98076271,58.2287361 5.37737288,58.4769722 C5.51720339,58.5642361 5.67228814,58.60575 5.82567797,58.60575 C6.10788136,58.60575 6.38415254,58.4651111 6.54516949,58.2075556 L9.08754237,54.1425833 C9.20533898,53.9528056 9.24432203,53.7249028 9.19516949,53.5063194 C8.57483051,50.7604722 8.56805085,40.5760139 8.57737288,37.9208194 L10.475678,37.385375 C9.47313559,40.9038889 9.19516949,43.9166111 9.63669492,46.4650556 C9.63669492,46.46675 9.63584746,46.4684444 9.63669492,46.4684444 C9.63669492,46.4709861 9.63838983,46.4726806 9.63838983,46.474375 C9.83584746,47.6088056 10.1672034,48.6568194 10.6494068,49.6107917 C10.9621186,50.2301111 11.3112712,50.82825 11.6807627,51.4111389 C11.6841525,51.4170694 11.6883898,51.4221528 11.6917797,51.4289306 C12.8841525,53.3029861 14.3561864,54.97625 16.0078814,56.3707778 C16.0875424,56.4766806 16.1875424,56.5597083 16.3070339,56.6173194 C18.8400847,58.6794583 21.7621186,60.0934722 24.7214407,60.5662222 C24.7663559,60.5738472 24.8095763,60.5772361 24.8536441,60.5772361 L24.8544915,60.5772361 L24.855339,60.5772361 L24.8561864,60.5772361 L24.8570339,60.5772361 C24.8994068,60.5772361 24.9426271,60.5738472 24.985,60.5670694 C28.085,60.0875417 31.0248305,58.689625 33.5544915,56.5910556 C33.635,56.5444583 33.7044915,56.4868472 33.7663559,56.4165278 C35.8866949,54.6077083 37.7070339,52.3015694 39.0663559,49.6107917 C39.5468644,48.6576667 39.8790678,47.6121944 40.0765254,46.4811528 L40.0765254,46.4803056 L40.0765254,46.4786111 C40.5214407,43.9267778 40.244322,40.9106667 39.2400847,37.3870694 L41.1333051,37.9208194 C41.1426271,40.5760139 41.1358475,50.7604722 40.5155085,53.5063194 C40.4663559,53.7249028 40.505339,53.9528056 40.6231356,54.1425833 L43.1655085,58.2075556 C43.3265254,58.4651111 43.6027966,58.60575 43.885,58.60575 C44.0383898,58.60575 44.1934746,58.5642361 44.3333051,58.4769722 C44.7299153,58.2287361 44.8511017,57.706 44.6027966,57.3086528 L42.2392373,53.5291944 C42.9163559,49.7336389 42.8290678,37.7945833 42.8248305,37.2718472 C42.8214407,36.8948333 42.5697458,36.5652639 42.2078814,36.46275 L38.6409322,35.4579444 C38.5833051,35.2910417 38.5180508,35.1173611 38.4578814,34.9479167 L38.4578814,34.9445278 C38.4570339,34.9411389 38.4536441,34.93775 38.4527966,34.9335139 C38.0197458,33.7135139 37.5172034,32.4435278 36.9307627,31.1125417 C36.7316102,30.6584306 36.5222881,30.2424444 36.3078814,29.8493333 L39.0714407,29.8493333 L44.4375424,38.5697917 C44.5188983,38.7019583 44.6341525,38.8087083 44.7722881,38.8790278 L48.4799153,40.7852778 C48.6036441,40.8488194 48.7358475,40.8793194 48.8663559,40.8793194 C49.1739831,40.8793194 49.4705932,40.7115694 49.6214407,40.4192778 C49.835,40.0032917 49.6705932,39.4924167 49.2544915,39.2789167" id="Fill-1" fill="#FFFFFF" mask="url(#mask-2)"></path>
            </g>
        </g>
    </g>
</svg>