<svg xmlns="http://www.w3.org/2000/svg" xmlns:xlink="http://www.w3.org/1999/xlink" width="90" height="77" viewBox="0 0 90 77">
    <defs>
        <path id="a" d="M.15.046h9.477V9.42H.149V.046z"/>
    </defs>
    <g fill="none" fill-rule="evenodd">
        <path fill="#FFF" d="M72.076 49.723c-3.509.016-6.214 2.725-6.2 6.21.013 3.431 2.84 6.23 6.267 6.205 3.407-.025 6.146-2.858 6.127-6.338-.018-3.407-2.756-6.093-6.194-6.077zm-40.64 6.278c.034-3.457-2.628-6.238-6.008-6.276-3.604-.042-6.352 2.594-6.408 6.146-.053 3.334 2.734 6.202 6.087 6.267 3.426.065 6.296-2.717 6.329-6.137zm42.82-16.973c-1.01-2.305-1.974-4.444-2.884-6.605-1.209-2.872-3.414-4.502-6.32-5.409-6.57-2.049-13.298-2.475-20.112-2.137-4.56.226-9.078.752-13.367 2.408-1.335.516-2.812 1.15-3.729 2.175-2.406 2.693-3.447 6.149-4.765 9.568h51.176zm-61.452 6.889c-.277-.08-.357-.119-.44-.124-3.501-.21-3.5-.209-4.205-3.647-.242-1.179-.492-2.356-.73-3.535-.341-1.682.507-2.823 2.216-2.86 2.233-.047 4.469-.054 6.701.009.883.025 1.24-.322 1.597-1.095 1.166-2.534 2.367-5.058 3.703-7.505 1.982-3.629 5.457-5.218 9.182-6.358 7.582-2.32 15.359-2.701 23.205-2.19 4.595.298 9.094 1.115 13.5 2.53 4.458 1.43 7.564 4.27 9.507 8.47.794 1.715 1.599 3.427 2.312 5.176.288.706.634.987 1.41.968 2.147-.053 4.296-.033 6.445-.014 2.15.02 2.958 1.049 2.52 3.124-.32 1.514-.597 3.037-.918 4.55-.404 1.903-.958 2.34-2.918 2.355-.504.004-1.007 0-1.741 0 1.722 2.224 2.857 4.455 3.252 7.01.686 4.448-.236 8.487-3.222 11.91-.768.88-1.1 1.725-1.053 2.873.08 1.934.035 3.874.016 5.81-.023 2.274-1.251 3.535-3.497 3.56-2.32.027-4.64.028-6.96-.005-2.033-.029-3.25-1.252-3.328-3.31-.036-.94-.006-1.882-.006-2.929H27.888c0 .915.013 1.803-.002 2.691-.041 2.338-1.259 3.542-3.621 3.56-2.191.015-4.383.015-6.574 0-2.333-.016-3.588-1.265-3.602-3.587-.015-2.238.028-4.478-.028-6.715-.013-.505-.207-1.113-.532-1.486-4.866-5.567-5.276-12.646-1.043-18.738.091-.131.172-.27.318-.498zM5.112 25.79C4.378 22.729 2.557 21.112 0 20.632c.975-.572 2.21-1.136 3.25-1.95 1.097-.861 1.577-2.178 1.873-3.616.745 2.903 2.565 4.684 5.348 5.296-1.098.61-2.291 1.146-3.34 1.89-1.117.791-1.653 2.044-2.019 3.538"/>
        <g transform="translate(9.026 .212)">
            <mask id="b" fill="#fff">
                <use xlink:href="#a"/>
            </mask>
            <path fill="#FFF" d="M9.627 4.837C7.01 5.455 5.24 6.73 4.599 9.42c-.58-2.505-2.08-3.91-4.45-4.512C2.59 4.262 4.086 2.766 4.601.046c.688 2.693 2.226 4.244 5.026 4.79" mask="url(#b)"/>
        </g>
        <path fill="#FFF" d="M20.337 14.716c1.837-.518 2.919-1.53 3.342-3.47.534 1.842 1.597 2.91 3.504 3.408-1.81.533-3 1.437-3.505 3.249-.47-1.764-1.526-2.73-3.34-3.187"/>
    </g>
</svg>
