<svg xmlns="http://www.w3.org/2000/svg" width="19" height="16" viewBox="0 0 19 16">
    <path fill="#FFF" fill-rule="evenodd" d="M7.731-.002c.775 0 1.551.023 2.302.023.194 0 .436 0 .436.25 0 .728-1.236.728-1.769.797.8.523 1.066 1.547 1.066 2.435 0 2.8-2.35 3.164-2.35 3.983 0 .751 3.053 1.866 3.053 4.438 0 2.868-2.835 4.074-5.501 4.074-2.302 0-4.968-.933-4.968-3.46 0-2.684 3.15-3.437 5.477-3.437-.291-.75-.557.046-.557-1.501C2.593 7.6.945 6.325.945 4.072c0-1.844 1.26-3.186 3.078-3.733C5.065.021 6.64-.002 7.731-.002zM5.647 6.075c1.163 0 1.551-1.002 1.551-1.934 0-1.185-.752-3.118-2.278-3.118-1.14 0-1.552 1.023-1.552 1.933 0 1.185.752 3.119 2.279 3.119zm-.34 8.147c1.333 0 3.224-.772 3.224-2.23 0-1.434-1.721-2.047-3.006-2.047-1.405 0-3.223.613-3.223 2.184 0 1.457 1.697 2.093 3.005 2.093zM16.576 4.117v2.276h-1.623V4.117h-2.424V2.615h2.424V.339h1.623v2.276H19v1.502h-2.424z"/>
</svg>
