<?xml version="1.0" encoding="UTF-8"?>
<svg width="41px" height="46px" viewBox="0 0 41 46" version="1.1" xmlns="http://www.w3.org/2000/svg" xmlns:xlink="http://www.w3.org/1999/xlink">
    <!-- Generator: Sketch 42 (36781) - http://www.bohemiancoding.com/sketch -->
    <title>Page 1</title>
    <desc>Created with Sketch.</desc>
    <defs></defs>
    <g id="Page-1" stroke="none" stroke-width="1" fill="none" fill-rule="evenodd">
        <g id="teenused-copy-4" transform="translate(-182.000000, -2091.000000)" fill="#FFFFFF">
            <g id="Page-1" transform="translate(182.000000, 2091.000000)">
                <path d="M32.9022909,0.0141767865 C31.4819838,0.126049098 30.1280682,0.621143585 29.0847708,1.40901029 C27.7948758,2.38253743 26.7586918,3.97017216 25.7367345,6.53609454 C25.5257039,7.0645127 25.3715804,7.47867828 24.9424058,8.66642899 C24.5559115,9.73992714 24.3211696,10.3445137 24.1077679,10.8324674 C23.4794183,12.255864 22.5641619,13.2793767 21.4141636,13.845879 C20.9612777,14.0672434 20.5795257,14.191017 20.0626192,14.2862275 C19.7757124,14.3385932 19.0359197,14.3576353 18.6944769,14.3219314 C18.1609725,14.2671854 17.4828292,14.0958065 17.115304,13.9244277 C16.4300473,13.6078528 15.7068524,12.8271269 15.0785029,11.7250656 C14.6208747,10.9252976 14.3102566,10.2516835 13.5064433,8.33319232 C12.8354134,6.73127602 12.5508777,6.13621054 12.1999504,5.61969369 C11.5312916,4.63188498 10.630262,3.82259592 9.62016042,3.30131855 C7.74933844,2.33731246 5.75047541,2.43014267 4.06934388,3.55600658 C2.52336678,4.59142053 1.63419284,5.93150801 1.40182205,7.5715085 C1.34965718,7.92616753 1.35677057,8.64262638 1.41130657,9.02346829 C1.49666727,9.60901273 1.65079075,10.1064875 1.90924398,10.6420464 C2.29573825,11.4441947 2.82212923,12.055922 3.7136743,12.7342967 C4.54831224,13.3698266 5.47542427,13.9196671 6.98583441,14.6694496 C10.3054171,16.3165909 10.5994373,16.4713079 11.3842815,16.9973458 C11.8869612,17.3329628 12.119332,17.5186232 12.4536614,17.8542401 C12.9705678,18.370757 13.2005675,18.825387 13.1650005,19.2585947 C13.1389181,19.6084932 12.8875783,19.9393496 12.5224242,20.115489 C12.3113936,20.21546 12.228404,20.2368824 11.9083014,20.2678258 C11.0570655,20.3511349 10.2817058,20.2249811 9.4399545,19.8655615 C9.30954232,19.8108155 8.76655343,19.5466064 8.23067793,19.2800171 C6.87439128,18.6064029 6.34562917,18.3850386 5.66511472,18.2136597 C4.6384152,17.9518309 3.56192195,17.9518309 2.70120157,18.2136597 C0.792441505,18.7920634 -0.253227052,20.4487257 0.0526487846,22.4124418 C0.244710356,23.640657 0.877802204,24.6165644 1.87130589,25.2116298 C2.64192331,25.6710204 3.70893204,25.8971453 4.74511608,25.8185966 C5.52521801,25.7590901 6.26263961,25.6234152 8.03150297,25.2092496 C9.89046929,24.7736616 10.24851,24.7141551 11.0286119,24.7141551 C11.5881987,24.7117748 11.8513942,24.7474788 12.2118061,24.8664919 C12.5105685,24.9664629 12.6860322,25.0664339 12.8709804,25.2425733 C13.0511863,25.4115719 13.1768562,25.630556 13.2219077,25.8566808 C13.2622169,26.0518623 13.2385056,26.4969713 13.1768562,26.7326172 C12.9468565,27.5823708 11.9723219,28.9510214 10.6373754,30.2934891 C9.88809816,31.0504124 9.60119137,31.2955794 8.39665707,32.219121 C6.12748517,33.9590925 4.70243573,35.253955 3.75635465,36.4417058 C2.90511879,37.5080631 2.49254209,38.4101824 2.33367634,39.5384266 C2.29099599,39.8573817 2.29573825,40.623826 2.34553199,40.9546824 C2.52099565,42.123391 3.02604645,43.158805 3.81800404,43.9752348 C4.48666285,44.6631305 5.23831122,45.0463527 6.31006222,45.2462947 C6.55665979,45.2915197 6.67521631,45.2986605 7.21109181,45.2986605 C7.75170957,45.2986605 7.86552383,45.2915197 8.13109045,45.2439145 C9.66046963,44.9678041 10.8626328,44.1608953 11.7352088,42.8231881 C12.192837,42.1186305 12.7263414,40.9808653 13.0986089,39.9073672 C13.5586082,38.588702 13.8526284,37.4414158 14.4548955,34.6469882 C14.7892249,33.0879167 14.8745856,32.7403984 15.0571627,32.1834171 C15.4887084,30.8766533 16.0198417,30.1459129 16.7572633,29.8459999 C17.5800456,29.5127632 18.2202508,29.6651 18.6375698,30.2982496 C19.0572599,30.9337796 19.1947854,31.6811818 19.3987027,34.4327647 C19.4911768,35.6705009 19.5291148,36.1108493 19.6026199,36.7416188 C19.7069496,37.6580196 19.8752999,38.5744205 20.0151966,38.9933466 C20.3779796,40.0882671 21.1438547,40.7880641 22.2322036,41.0189495 C22.5499351,41.0855968 23.0692127,41.0760758 23.4106555,40.9951469 C24.0484896,40.8475706 24.5393136,40.5738405 24.9945707,40.1120697 C25.6347759,39.4646384 25.9406518,38.7053349 25.9406518,37.7770327 C25.9382806,37.0986581 25.762817,36.3941005 25.3739516,35.5086431 C25.0609623,34.7969447 24.7218907,34.2233016 23.7212736,32.7118353 C22.8439553,31.3836491 22.6850896,31.0599335 22.6092134,30.4386851 C22.5001414,29.529425 23.0004499,28.7344175 23.8753971,28.4321243 C24.5345714,28.2036191 25.3028176,28.3345335 26.3224038,28.8439096 C27.0147739,29.1914278 27.3704435,29.4770593 29.52343,31.3979307 C31.6123959,33.264056 32.6414666,34.0709648 33.665795,34.6565093 C34.8395046,35.3229826 36.1957912,35.5729101 37.3623874,35.3372642 C38.5574372,35.0944775 39.5177451,34.4351449 40.0891875,33.4616178 C41.3055775,31.3931701 41.3032064,29.2366528 40.0844453,27.6490181 C39.8710435,27.3705274 39.515374,27.0015868 39.280632,26.8087856 C38.1804275,25.9161874 36.4921826,25.4068113 33.0327031,24.9259984 C31.9324986,24.7712814 31.2733243,24.6617893 30.7848714,24.5522973 C28.1766278,23.9619923 26.4788984,22.7909034 26.1493112,21.3532252 C26.1184865,21.2246911 26.1113732,21.0556925 26.1113732,20.6034427 C26.1113732,20.0845456 26.1161154,19.9917154 26.163538,19.770351 C26.362713,18.8587107 26.8013721,18.0994071 27.5577628,17.3662864 C27.8968344,17.0378103 28.1410609,16.8426288 28.5868334,16.5450961 C29.7226049,15.790553 30.7682735,15.335923 32.831157,14.6980128 C34.448268,14.1957775 35.0789888,13.9625118 35.8662041,13.5650081 C36.9616664,13.0151676 37.8579537,12.3391732 38.7329009,11.4037302 C39.5722811,10.5039912 40.188775,9.39954968 40.4661973,8.29748839 C40.8835163,6.62178397 40.5823827,4.84134803 39.624446,3.3227409 C38.4578497,1.47803789 36.6723885,0.345033198 34.4814639,0.0617820256 C34.0428047,0.0046557387 33.303012,-0.0167666189 32.9022909,0.0141767865" id="Fill-1"></path>
            </g>
        </g>
    </g>
</svg>