<svg xmlns="http://www.w3.org/2000/svg" width="65" height="76" viewBox="0 0 65 76">
    <path fill="#FFF" fill-rule="evenodd" d="M47.638 0l-2.324 2.194v3.357h-3.615V2.194L39.506 0H25.305l-2.196 2.194v3.357h-3.744V2.194L17.171 0H5.552L1.807 3.613v11.75l11.361 9.94v25.821L0 64.42v8.908l2.454 2.453h59.901l2.453-2.453V64.42L51.64 51.124v-25.82l11.362-9.942V3.613L59.257 0H47.638zm0 10.586l1.936-1.808V5.163h7.231l1.677 1.808v7.23l-8.778 7.1H15.105l-8.779-7.1V6.97l1.68-1.808h7.228v3.615l1.937 1.808h8.391l1.936-1.808V5.422h9.813v3.356l1.936 1.808h8.391zM17.687 48.541h29.435v-22.85H17.687v22.85zm-.516 4.26h30.467l8.519 8.262H8.65l8.521-8.262zM4.519 70.617H60.29v-5.034H4.519v5.034z"/>
</svg>
