<?xml version="1.0" encoding="utf-8"?>
<!-- Generator: Adobe Illustrator 21.1.0, SVG Export Plug-In . SVG Version: 6.00 Build 0)  -->
<svg version="1.1" xmlns="http://www.w3.org/2000/svg" xmlns:xlink="http://www.w3.org/1999/xlink" x="0px" y="0px"
	 viewBox="0 0 1920 1080" style="enable-background:new 0 0 1920 1080;" xml:space="preserve">
<style type="text/css">
	.st0{display:none;}
	.st1{display:inline;fill:#002147;}
	.st2{display:inline;fill:none;stroke:#FFFFFF;stroke-dasharray:4.008,4.008;}
	.st3{display:inline;}
	.st4{fill:#70417B;}
	.st5{font-family:'GothamBlack';}
	.st6{font-size:23px;}
	.st7{display:inline;fill:#70E4A1;}
	.st8{display:inline;fill:#39A4FF;}
	.st9{letter-spacing:-1;}
	.st10{display:inline;fill:#FFFFFF;}
	.st11{font-family:'GothamPro-Medium';}
	.st12{font-size:22.9883px;}
	.st13{fill:#FFFFFF;}
	.st14{font-size:16px;}
	.st15{display:inline;fill:#70417B;}
	.st16{display:inline;fill:none;stroke:#FFFFFF;stroke-miterlimit:10;}
	.st17{fill:#70E4A1;}
	.st18{fill:none;stroke:#FFFFFF;stroke-dasharray:4.008,4.008;}
	.st19{fill:#39A4FF;}
	.st20{fill:none;stroke:#FFFFFF;}
</style>
<g id="Layer_2" class="st0">
	<rect x="417.3" y="245.8" class="st1" width="1120.4" height="650"/>
</g>
<g id="Layer_4" class="st0">
	<line class="st2" x1="548.2" y1="567.8" x2="1480.2" y2="567.8"/>
	<g class="st3">
		<text transform="matrix(1 0 0 1 474.7462 522.9274)" class="st4 st5 st6">EKSKLUSIIV</text>
	</g>
	<text transform="matrix(1 0 0 1 739.7188 522.9274)" class="st7 st5 st6">SISE-VÄLIS</text>
	<text transform="matrix(1 0 0 1 898.7188 522.9274)" class="st8 st5 st6 st9">VÄLIS</text>
	<text transform="matrix(1 0 0 1 643.7188 522.9274)" class="st8 st5 st6 st9">VÄLIS</text>
	<text transform="matrix(1 0 0 1 711.7188 699.9186)" class="st10 st11 st12">1. KUU</text>
	<g class="st3">
		<text transform="matrix(1 0 0 1 518.7188 610.1207)" class="st13 st11 st14">1. nädal</text>
	</g>
	<g class="st3">
		<text transform="matrix(1 0 0 1 646.7188 610.1207)" class="st13 st11 st14">2. nädal</text>
	</g>
	<g class="st3">
		<text transform="matrix(1 0 0 1 772.2354 610.1207)" class="st13 st11 st14">3. nädal</text>
	</g>
	<g class="st3">
		<text transform="matrix(1 0 0 1 901.0645 610.1207)" class="st13 st11 st14">4. nädal</text>
	</g>
	<text transform="matrix(1 0 0 1 1173.7114 699.9186)" class="st10 st11 st12">2. KUU</text>
	<circle class="st15" cx="546.2" cy="568.1" r="14.7"/>
	<circle class="st8" cx="674.7" cy="567.8" r="14.7"/>
	<circle class="st7" cx="803.1" cy="568.1" r="14.7"/>
	<circle class="st8" cx="931.5" cy="568.1" r="14.7"/>
	<circle class="st15" cx="1059.9" cy="568.1" r="14.7"/>
	<circle class="st8" cx="1188.4" cy="567.8" r="14.7"/>
	<circle class="st7" cx="1316.8" cy="568.1" r="14.7"/>
	<circle class="st8" cx="1445.2" cy="568.1" r="14.7"/>
	<polyline class="st16" points="995.7,618.8 995.7,647.8 546.2,647.8 546.2,618.8 	"/>
	<polyline class="st16" points="1445.2,618.8 1445.2,647.8 995.7,647.8 995.7,618.8 	"/>
	<g class="st3">
		<text transform="matrix(1 0 0 1 986.4307 522.9274)" class="st4 st5 st6">EKSKLUSIIV</text>
	</g>
	<text transform="matrix(1 0 0 1 1251.4033 522.9274)" class="st7 st5 st6">SISE-VÄLIS</text>
	<text transform="matrix(1 0 0 1 1155.4033 522.9274)" class="st8 st5 st6 st9">VÄLIS</text>
	<text transform="matrix(1 0 0 1 1408.4033 522.9274)" class="st8 st5 st6 st9">VÄLIS</text>
</g>
<g id="Layer_5" class="st0">
	<line class="st2" x1="593.1" y1="569.8" x2="1397.4" y2="569.8"/>
	<text transform="matrix(1 0 0 1 522.5968 524.9295)" class="st7 st5 st6">SISE-VÄLIS</text>
	<text transform="matrix(1 0 0 1 748.653 701.9208)" class="st10 st11 st12">1. KUU</text>
	<text transform="matrix(1 0 0 1 1143.1769 701.9208)" class="st10 st11 st12">2. KUU</text>
	<circle class="st7" cx="591.2" cy="570.1" r="14.7"/>
	<circle class="st10" cx="719.6" cy="569.8" r="14.7"/>
	<circle class="st10" cx="848" cy="570.1" r="14.7"/>
	<circle class="st10" cx="976.5" cy="570.1" r="14.7"/>
	<circle class="st7" cx="1104.9" cy="570.1" r="14.7"/>
	<circle class="st10" cx="1233.3" cy="569.8" r="14.7"/>
	<circle class="st10" cx="1361.7" cy="570.1" r="14.7"/>
	<polyline class="st16" points="978.1,620.8 978.1,649.8 591.2,649.8 591.2,620.8 	"/>
	<polyline class="st16" points="1365.1,620.8 1365.1,649.8 978.1,649.8 978.1,620.8 	"/>
	<text transform="matrix(1 0 0 1 1037.2643 524.9295)" class="st7 st5 st6">SISE-VÄLIS</text>
	<g class="st3">
		<text transform="matrix(1 0 0 1 561.3795 609.578)" class="st13 st11 st14">1. nädal</text>
	</g>
	<g class="st3">
		<text transform="matrix(1 0 0 1 689.3795 609.578)" class="st13 st11 st14">2. nädal</text>
	</g>
	<g class="st3">
		<text transform="matrix(1 0 0 1 814.8961 609.578)" class="st13 st11 st14">3. nädal</text>
	</g>
	<g class="st3">
		<text transform="matrix(1 0 0 1 943.7252 609.578)" class="st13 st11 st14">4. nädal</text>
	</g>
	<text transform="matrix(1 0 0 1 1224.3658 524.9295)" class="st10 st5 st6">X</text>
	<text transform="matrix(1 0 0 1 840.5519 524.9295)" class="st10 st5 st6">X</text>
	<text transform="matrix(1 0 0 1 1352.2369 524.9295)" class="st10 st5 st6">X</text>
	<text transform="matrix(1 0 0 1 968.6061 524.9295)" class="st10 st5 st6">X</text>
	<text transform="matrix(1 0 0 1 712.1188 524.9295)" class="st10 st5 st6">X</text>
</g>
<g id="Layer_3" class="st0">
	<line class="st2" x1="592.1" y1="567.8" x2="1396.4" y2="567.8"/>
	<g class="st3">
		<text transform="matrix(1 0 0 1 523.6485 522.9274)" class="st17 st5 st6">SISE-VÄLIS</text>
	</g>
	<text transform="matrix(1 0 0 1 780.6212 522.9274)" class="st7 st5 st6">SISE-VÄLIS</text>
	<text transform="matrix(1 0 0 1 747.6212 699.9186)" class="st10 st11 st12">1. KUU</text>
	<text transform="matrix(1 0 0 1 1142.145 699.9186)" class="st10 st11 st12">2. KUU</text>
	<circle class="st7" cx="590.1" cy="568.1" r="14.7"/>
	<circle class="st10" cx="718.6" cy="567.8" r="14.7"/>
	<circle class="st7" cx="847" cy="568.1" r="14.7"/>
	<circle class="st10" cx="975.4" cy="568.1" r="14.7"/>
	<circle class="st7" cx="1103.9" cy="568.1" r="14.7"/>
	<circle class="st10" cx="1232.3" cy="567.8" r="14.7"/>
	<circle class="st7" cx="1360.7" cy="568.1" r="14.7"/>
	<polyline class="st16" points="977.1,618.8 977.1,647.8 590.1,647.8 590.1,618.8 	"/>
	<polyline class="st16" points="1364.1,618.8 1364.1,647.8 977.1,647.8 977.1,618.8 	"/>
	<g class="st3">
		<text transform="matrix(1 0 0 1 1036.333 522.9274)" class="st17 st5 st6">SISE-VÄLIS</text>
	</g>
	<text transform="matrix(1 0 0 1 1293.3057 522.9274)" class="st7 st5 st6">SISE-VÄLIS</text>
	<text transform="matrix(1 0 0 1 562.0323 608.7546)" class="st10 st11 st14">1. nädal</text>
	<text transform="matrix(1 0 0 1 690.0323 608.7546)" class="st10 st11 st14">2. nädal</text>
	<text transform="matrix(1 0 0 1 815.5489 608.7546)" class="st10 st11 st14">3. nädal</text>
	<text transform="matrix(1 0 0 1 944.378 608.7546)" class="st10 st11 st14">4. nädal</text>
	<text transform="matrix(1 0 0 1 1224.0508 522.9274)" class="st10 st5 st6">X</text>
	<text transform="matrix(1 0 0 1 967.2911 522.9274)" class="st10 st5 st6">X</text>
	<text transform="matrix(1 0 0 1 710.8038 522.9274)" class="st10 st5 st6">X</text>
</g>
<g id="Layer_1">
	<line class="st18" x1="593.2" y1="570.8" x2="1397.5" y2="570.8"/>
	<g>
		<text transform="matrix(1 0 0 1 522.0255 525.9107)" class="st17 st5 st6">SISE-VÄLIS</text>
	</g>
	<text transform="matrix(1 0 0 1 813.9982 525.9107)" class="st19 st5 st6 st9">VÄLIS</text>
	<text transform="matrix(1 0 0 1 747.9981 702.9019)" class="st13 st11 st12">1. KUU</text>
	<text transform="matrix(1 0 0 1 1142.5221 702.9019)" class="st13 st11 st12">2. KUU</text>
	<circle class="st17" cx="590.5" cy="571.1" r="14.7"/>
	<circle class="st13" cx="718.9" cy="570.8" r="14.7"/>
	<circle class="st19" cx="847.4" cy="571.1" r="14.7"/>
	<circle class="st13" cx="975.8" cy="571.1" r="14.7"/>
	<circle class="st17" cx="1104.2" cy="571.1" r="14.7"/>
	<circle class="st13" cx="1232.7" cy="570.8" r="14.7"/>
	<circle class="st19" cx="1361.1" cy="571.1" r="14.7"/>
	<polyline class="st20" points="977.5,621.8 977.5,650.8 590.5,650.8 590.5,621.8 	"/>
	<polyline class="st20" points="1364.5,621.8 1364.5,650.8 977.5,650.8 977.5,621.8 	"/>
	<g>
		<text transform="matrix(1 0 0 1 1035.71 525.9107)" class="st17 st5 st6">SISE-VÄLIS</text>
	</g>
	<text transform="matrix(1 0 0 1 1224.4697 525.9107)" class="st13 st5 st6">X</text>
	<text transform="matrix(1 0 0 1 966.71 525.9107)" class="st13 st5 st6">X</text>
	<text transform="matrix(1 0 0 1 711.2227 525.9107)" class="st13 st5 st6">X</text>
	<text transform="matrix(1 0 0 1 1325.6826 525.9107)" class="st19 st5 st6 st9">VÄLIS</text>
	<text transform="matrix(1 0 0 1 561.3418 609.6763)" class="st13 st11 st14">1. nädal</text>
	<g>
		<text transform="matrix(1 0 0 1 689.3419 609.6763)" class="st13 st11 st14">2. nädal</text>
	</g>
	<g>
		<text transform="matrix(1 0 0 1 814.8585 609.6763)" class="st13 st11 st14">3. nädal</text>
	</g>
	<g>
		<text transform="matrix(1 0 0 1 943.6876 609.6763)" class="st13 st11 st14">4. nädal</text>
	</g>
</g>
</svg>
