<svg xmlns="http://www.w3.org/2000/svg" xmlns:xlink="http://www.w3.org/1999/xlink" width="60" height="55" viewBox="0 0 60 55">
    <defs>
        <path id="a" d="M0 54.977h59.882V0H0v54.977z"/>
    </defs>
    <g fill="none" fill-rule="evenodd">
        <mask id="b" fill="#fff">
            <use xlink:href="#a"/>
        </mask>
        <path fill="#FFF" d="M3.087 33.913c.638-.745 2.594-1.89 8.521-2.333 1.048 2.01 1.85 3.94 1.852 6.473 0 3.08-.555 5.751-1.34 7.968H6.647c-.79-1.02-2.85-4.248-3.854-11.105-.058-.397.029-.697.293-1.003zm18.771-2.417c1.07 2.04 1.895 3.988 1.897 6.557 0 3.08-.556 5.751-1.34 7.968H15.06c.694-2.228 1.18-4.876 1.18-7.969-.001-2.613-.704-4.71-1.603-6.623a90.035 90.035 0 0 1 2.488-.033c1.548 0 3.14.037 4.733.1zm20.485 1.881a1.387 1.387 0 0 0 1.585-1.29c1.758-26.437 7.94-29.29 10.515-29.29 1.012 0 1.898.376 2.47.698L46.557 46.02H35.649c.693-2.228 1.18-4.876 1.18-7.969 0-2.107-.462-3.876-1.11-5.488 3.914.425 6.566.804 6.624.813zM25.354 46.021c.694-2.228 1.18-4.876 1.18-7.969-.001-2.511-.65-4.546-1.498-6.399a210.8 210.8 0 0 1 7.496.587c.878 1.78 1.515 3.557 1.517 5.813 0 3.081-.556 5.752-1.34 7.969h-7.355v-.001zm-20.28 2.423c.257.24.595.374.945.374h4.882c-.914 1.733-1.908 3.005-2.689 3.743a1.404 1.404 0 0 0-.061 1.976 1.382 1.382 0 0 0 1.965.061c.356-.336 2.285-2.264 3.885-5.78h7.195c-.915 1.733-1.909 3.005-2.69 3.743a1.404 1.404 0 0 0-.06 1.976 1.382 1.382 0 0 0 1.965.061c.356-.336 2.284-2.264 3.884-5.78h7.195c-.915 1.733-1.909 3.005-2.69 3.743a1.405 1.405 0 0 0-.061 1.976 1.383 1.383 0 0 0 1.966.061c.355-.336 2.284-2.264 3.884-5.78h13.058c.64 0 1.197-.44 1.35-1.065l10.845-44.54a1.402 1.402 0 0 0-.446-1.395C59.311 1.743 57.252 0 54.443 0 47.21 0 42.777 10.228 41.261 30.408a248.269 248.269 0 0 0-6.96-.804c-.126-.237-.254-.475-.382-.71-1.555-2.861-3.152-5.813-3.027-10.523a1.383 1.383 0 0 0 1.755.139c.631-.442.786-1.314.348-1.947l-2.366-3.415a1.387 1.387 0 0 0-2.28 0l-2.364 3.415a1.404 1.404 0 0 0 .345 1.947c.243.17.52.251.794.251.365 0 .721-.153.989-.428-.127 4.878 1.352 8.132 2.858 10.956-2.338-.205-4.86-.39-7.412-.517-1.533-2.824-3.085-5.758-2.96-10.401a1.383 1.383 0 0 0 1.754.139c.631-.442.786-1.314.348-1.947l-2.365-3.415a1.388 1.388 0 0 0-2.28 0l-2.365 3.415a1.404 1.404 0 0 0 .346 1.947c.242.17.52.251.794.251.366 0 .721-.153.988-.428-.118 4.513 1.14 7.635 2.521 10.313-1.082-.03-2.159-.047-3.215-.047-1.398 0-2.692.03-3.908.085-1.518-2.797-3.036-5.718-2.912-10.313a1.383 1.383 0 0 0 1.755.14c.63-.442.785-1.314.347-1.947l-2.364-3.415a1.387 1.387 0 0 0-2.28 0l-2.366 3.415a1.404 1.404 0 0 0 .346 1.946c.243.17.52.252.794.252.366 0 .722-.153.99-.428-.122 4.652 1.217 7.829 2.648 10.563-4.77.47-7.752 1.513-9.19 3.188a3.957 3.957 0 0 0-.938 3.24c1.408 9.642 4.88 12.98 5.026 13.119z" mask="url(#b)"/>
    </g>
</svg>
