<svg xmlns="http://www.w3.org/2000/svg" xmlns:xlink="http://www.w3.org/1999/xlink" width="48" height="55" viewBox="0 0 48 55">
    <defs>
        <path id="a" d="M47.622 6.707v6.69H0V.017h47.622v6.69z"/>
    </defs>
    <g fill="none" fill-rule="evenodd">
        <g transform="translate(0 41.548)">
            <mask id="b" fill="#fff">
                <use xlink:href="#a"/>
            </mask>
            <path fill="#FFF" d="M30.28.017c.067 1.289.105 2.59.105 3.909 0 3.469-1.257 7.538-6.289 7.538-4.75 0-7.127-4.069-7.127-7.538 0-1.318-.02-2.621-.056-3.909H0V1.95h15.02c.01.672.014 1.327.014 1.977 0 4.656 3.39 9.472 9.061 9.472 5.15 0 8.225-3.541 8.225-9.472 0-.651-.01-1.307-.028-1.977h15.33V.017H30.28z" mask="url(#b)"/>
        </g>
        <path fill="#FFF" d="M9.574 0c-.828 0 8.24 17.39 8.933 42.418.027.99.044 1.991.044 3.007 0 2.668 1.826 5.798 5.482 5.798 3.87 0 4.838-3.129 4.838-5.798 0-1.015-.03-2.016-.082-3.007C27.493 17.578 10.611 0 9.574 0"/>
    </g>
</svg>
