<svg xmlns="http://www.w3.org/2000/svg" width="34" height="62" viewBox="0 0 34 62">
    <g fill="#FFF" fill-rule="evenodd">
        <path d="M31.212 26.285l-2.849 4.899c-.316.572-.95.954-1.646.954h-5.635c-.696 0-1.33-.382-1.646-.954l-2.849-4.899a2.037 2.037 0 0 1 0-1.909l2.85-4.898c.316-.573.949-.955 1.645-.955h5.635c.696 0 1.33.382 1.646.955l2.85 4.898c.379.637.379 1.337 0 1.909zm-16.777-3.117c-.317.572-.95.954-1.646.954H7.154c-.696 0-1.33-.382-1.646-.954l-2.849-4.9a2.037 2.037 0 0 1 0-1.908l2.85-4.898c.316-.573.949-.955 1.645-.955h5.635c.696 0 1.33.382 1.646.955l2.849 4.898a2.037 2.037 0 0 1 0 1.909l-2.85 4.899zM16.65 8.344L19.5 3.445c.316-.572.95-.954 1.646-.954h5.634c.697 0 1.33.382 1.646.954l2.85 4.9a2.036 2.036 0 0 1 0 1.908l-2.85 4.899c-.316.572-.95.954-1.646.954h-5.634c-.697 0-1.33-.382-1.646-.954l-2.85-4.9c-.316-.572-.316-1.272 0-1.908zm13.865 9.925c-.19-.382-.444-.7-.76-.954.316-.255.57-.573.76-.955l2.849-4.898a4.39 4.39 0 0 0 0-4.326l-2.85-4.9A4.33 4.33 0 0 0 26.78.075h-5.634a4.33 4.33 0 0 0-3.736 2.163l-2.849 4.899c-.19.381-.38.763-.443 1.145a4.798 4.798 0 0 0-1.33-.191H7.155a4.33 4.33 0 0 0-3.735 2.163l-2.85 4.899a4.39 4.39 0 0 0 0 4.326l2.85 4.898a4.329 4.329 0 0 0 3.735 2.164h5.635c.443 0 .886-.064 1.33-.191.063.381.253.827.442 1.145l2.85 4.899a4.33 4.33 0 0 0 3.735 2.163h5.634c1.52 0 2.976-.827 3.736-2.163l2.849-4.9a4.39 4.39 0 0 0 0-4.325l-2.85-4.9zM10.51 44.544c-1.393 0-2.47-1.145-2.47-2.481 0-2.1 1.52-6.871 2.533-8.398.95 1.527 2.469 6.171 2.469 8.398 0 1.336-1.14 2.481-2.532 2.481m0-13.678c-2.85 0-4.875 9.288-4.875 11.197a4.889 4.889 0 0 0 4.875 4.899c2.659 0 4.874-2.227 4.874-4.9 0-1.717-1.772-11.196-4.874-11.196M22.412 59.558c-1.393 0-2.47-1.145-2.47-2.48 0-2.1 1.52-6.872 2.533-8.462.95 1.527 2.47 6.17 2.47 8.461-.064 1.336-1.14 2.481-2.533 2.481m0-13.678c-2.85 0-4.875 9.289-4.875 11.197a4.889 4.889 0 0 0 4.875 4.899c2.659 0 4.875-2.227 4.875-4.899 0-1.718-1.836-11.197-4.875-11.197"/>
    </g>
</svg>
