<svg xmlns="http://www.w3.org/2000/svg" width="90" height="84" viewBox="0 0 90 84">
    <path fill="#FFF" fill-rule="evenodd" d="M44.797 24.142c-1.205 7.574-2.754 13.039-4.647 16.396l-1.937 3.098v.129c-.258-.258-1.377-1.55-3.356-3.873-2.497-2.926-5.122-8.477-7.876-16.653.172 1.204.258 2.452.258 3.743 0 4.046-.73 10.285-2.194 18.72-4.648-2.754-9.166-7.144-13.556-13.168 1.464 7.4 2.582 12.264 3.357 14.588.516 1.72 1.162 2.71 1.936 2.969 7.058-4.045 16.396-6.067 28.015-6.067 11.705 0 21.043 2.022 28.015 6.067 1.55-.516 3.27-6.37 5.164-17.557C73.5 38.73 69.026 43.12 64.55 45.703c-1.463-7.49-2.194-13.384-2.194-17.688 0-1.12.086-2.711.258-4.776-1.722 5.164-3.7 9.768-5.939 13.813a45.968 45.968 0 0 1-4.002 5.164c-.688.689-1.119 1.205-1.29 1.549l-2.84-5.035a5.042 5.042 0 0 0-.388-1.032c-.689-1.894-1.808-6.412-3.357-13.556M7.23 15.88c-2.152 0-3.227 1.033-3.227 3.098 0 2.238 1.075 3.357 3.227 3.357 2.066 0 3.098-1.12 3.098-3.357 0-1.463-.73-2.453-2.194-2.97a2.865 2.865 0 0 0-.904-.128m16.912-8.262c-2.152 0-3.227 1.075-3.227 3.227 0 2.15 1.075 3.228 3.227 3.228 2.066 0 3.098-1.077 3.098-3.228 0-2.152-1.032-3.227-3.098-3.227m41.054 0c-1.463 0-2.453.73-2.969 2.194l-.13 1.033c0 1.549.732 2.582 2.195 3.098.258.086.56.13.904.13 2.238 0 3.356-1.077 3.356-3.228 0-2.152-1.118-3.227-3.356-3.227m16.912 8.262c-1.377 0-2.367.688-2.969 2.065-.087.344-.13.689-.13 1.033 0 1.722.775 2.797 2.325 3.227.257.087.516.13.774.13 2.151 0 3.228-1.12 3.228-3.357 0-2.065-1.077-3.098-3.228-3.098M44.797 0c3.098 0 5.25 1.42 6.455 4.26l.646 2.583v.387c0 .516-.345 1.592-1.033 3.227-1.205 3.529-1.808 6.585-1.808 9.166 0 4.218.947 10.458 2.841 18.72 4.647-9.811 6.971-17.213 6.971-22.205l-.775-5.551c0-3.012 1.334-5.164 4.002-6.455a6.362 6.362 0 0 1 3.1-.775c3.097 0 5.292 1.377 6.583 4.13.517 1.034.774 2.067.774 3.1 0 2.238-.774 4.002-2.323 5.293-2.324 2.324-3.529 6.11-3.615 11.36 0 2.238.215 5.853.645 10.845 5.595-5.766 8.392-10.457 8.392-14.072l-.646-5.035c0-2.84 1.291-4.95 3.874-6.326 1.032-.602 2.108-.904 3.227-.904 2.926 0 5.121 1.334 6.584 4.003l.774 2.453v.774c0 3.529-1.979 6.197-5.938 8.004-.172 3.7-1.592 10.974-4.26 21.818-.173.517-.302.99-.387 1.42 0 1.205-1.377 3.27-4.132 6.197-3.7 3.702-5.55 6.584-5.55 8.65 0 .946 1.032 3.485 3.098 7.617.344.774.516 1.937.516 3.485v.905a2.85 2.85 0 0 0-.129.903v.129l.13.129c0 3.098-8.307 4.819-24.917 5.164h-3.228l-5.422-.13h-.129c-8.09-.258-14.244-.945-18.462-2.064-2.668-.776-4.002-1.765-4.002-2.97.086-.086.086-.603 0-1.55a.55.55 0 0 1 0-.516c0-1.98.646-4.26 1.937-6.841 1.033-2.067 1.55-3.487 1.55-4.261 0-1.377-.733-3.013-2.196-4.905l-6.326-7.231c-.688-.946-1.032-1.85-1.032-2.711-2.668-10.93-4.175-18.031-4.519-21.301a15.68 15.68 0 0 1-.129-1.937C1.98 25.175 0 22.507 0 18.978c0-2.84 1.291-4.95 3.873-6.326 1.118-.602 2.237-.904 3.356-.904 3.012 0 5.164 1.377 6.455 4.132a6.37 6.37 0 0 1 .775 3.098l-.646 5.035c0 3.787 2.754 8.478 8.263 14.072.43-3.787.645-7.402.645-10.844 0-4.734-.559-7.875-1.678-9.425-.43-.602-1.076-1.291-1.937-2.065-1.549-1.033-2.324-2.755-2.324-5.164 0-3.012 1.421-5.207 4.261-6.585.946-.43 1.98-.645 3.098-.645 3.012 0 5.164 1.377 6.455 4.13.516.948.775 1.98.775 3.1l-.775 5.422v.129c0 4.906 2.324 12.308 6.972 22.205 1.807-7.832 2.71-14.072 2.71-18.72 0-3.442-.645-6.712-1.936-9.811-.516-1.205-.774-2.066-.774-2.582 0-3.012 1.376-5.164 4.131-6.455A6.367 6.367 0 0 1 44.797 0m0 3.745c-2.152 0-3.228 1.032-3.228 3.098 0 2.237 1.076 3.357 3.228 3.357 2.065 0 3.098-1.12 3.1-3.357-.002-2.066-1.035-3.098-3.1-3.098m0 67.518c-4.389 0-9.295.216-14.717.647-4.218.343-6.326 1.334-6.326 2.968 0 2.153 7.014 3.228 21.043 3.228 14.03 0 21.043-1.075 21.043-3.228 0-.688-.559-1.334-1.678-1.936-3.27-1.118-9.725-1.68-19.365-1.68m20.915-11.1c-6.8-.862-13.77-1.291-20.915-1.291-7.488 0-14.459.429-20.914 1.29 1.033.86 1.55 2.54 1.55 5.035 0 1.635-.259 2.626-.775 2.969 5.163-.947 11.877-1.42 20.14-1.42 8.261 0 14.975.473 20.14 1.42-.518-.343-.776-1.334-.776-2.97 0-2.494.516-4.173 1.55-5.033M41.828 54.35h5.68c1.291 0 2.84.043 4.648.13l12.781.774h.13c1.548 0 2.322-.215 2.323-.645v-.517c0-2.582-5.724-4.26-17.17-5.035-2.067-.172-3.874-.258-5.423-.258-8.435 0-14.932.862-19.494 2.582-2.066.775-3.098 1.678-3.098 2.71v.518c0 .43.774.645 2.323.645l17.3-.904"/>
</svg>
