<svg xmlns="http://www.w3.org/2000/svg" width="54" height="65" viewBox="0 0 54 65">
    <path fill="#FFF" fill-rule="evenodd" d="M25.968 64.662a26.11 26.11 0 0 1-12.985-3.45C.759 54.193-3.473 38.535 3.549 26.312c2.099-3.654 5.316-6.685 9.303-8.766a3.835 3.835 0 0 1 3.549 6.799c-2.689 1.403-4.833 3.404-6.202 5.787-4.915 8.556-1.953 19.516 6.604 24.432a18.402 18.402 0 0 0 14.266 1.703c4.44-1.3 8.024-4.2 10.089-8.168 2.525-4.85 2.33-10.093-.58-15.583-2.382-4.494-5.941-7.862-7.112-8.78a3.815 3.815 0 0 1-.253-.218c-1.936-1.813-3.448-4.488-4.15-7.34-.835-3.399-.439-6.762 1.118-9.472C33.578.792 41.153-1.256 47.068 2.141a12.289 12.289 0 0 1 5.78 7.499c.861 3.189.43 6.523-1.216 9.388a3.835 3.835 0 1 1-6.65-3.82 4.669 4.669 0 0 0 .462-3.567 4.669 4.669 0 0 0-2.196-2.85 4.706 4.706 0 0 0-6.417 1.735c-.882 1.535-.711 5.107 1.526 7.298 2.092 1.684 6.176 5.776 8.997 11.1 4.103 7.741 4.313 15.596.607 22.715-3.039 5.839-8.273 10.096-14.738 11.988a25.832 25.832 0 0 1-7.255 1.035"/>
</svg>
