<svg xmlns="http://www.w3.org/2000/svg" xmlns:xlink="http://www.w3.org/1999/xlink" width="80" height="55" viewBox="0 0 80 55">
    <defs>
        <path id="a" d="M0 .017v13.38h79.41V.017H0z"/>
    </defs>
    <g fill="none" fill-rule="evenodd">
        <path fill="#FFF" d="M50.506 45.424c0 2.669 1.817 5.799 5.45 5.799 3.848 0 4.81-3.13 4.81-5.8 0-1.013-.03-2.015-.08-3.007C59.398 17.577 42.613 0 41.582 0c-.823 0 8.194 17.39 8.88 42.417.029.991.044 1.993.044 3.007"/>
        <g transform="translate(0 41.547)">
            <mask id="b" fill="#fff">
                <use xlink:href="#a"/>
            </mask>
            <path fill="#FFF" d="M46.997 1.95c.01.67.015 1.327.015 1.976 0 4.655 3.37 9.471 9.009 9.471 5.12 0 8.177-3.54 8.177-9.471 0-.65-.011-1.307-.028-1.977h15.24V.017H62.166c.068 1.288.106 2.591.106 3.909 0 3.47-1.25 7.537-6.252 7.537-4.723 0-7.086-4.069-7.086-7.537 0-1.319-.021-2.621-.055-3.91H30.103a75.6 75.6 0 0 1 .105 3.91c0 3.47-1.251 7.537-6.253 7.537-4.723 0-7.084-4.069-7.084-7.537 0-1.319-.02-2.621-.057-3.91H0V1.95h14.932c.01.672.014 1.328.014 1.977 0 4.655 3.37 9.471 9.009 9.471 5.118 0 8.175-3.54 8.175-9.471 0-.65-.008-1.307-.026-1.977h14.893z" mask="url(#b)"/>
        </g>
        <path fill="#FFF" d="M18.442 45.424c0 2.669 1.816 5.799 5.45 5.799 3.848 0 4.81-3.13 4.81-5.8 0-1.013-.03-2.015-.082-3.007C27.333 17.577 10.55 0 9.518 0c-.823 0 8.191 17.39 8.88 42.417.027.991.044 1.993.044 3.007"/>
    </g>
</svg>
