<svg xmlns="http://www.w3.org/2000/svg" width="47" height="75" viewBox="0 0 47 75">
    <path fill="#FFF" fill-rule="evenodd" d="M23.544 34.842c6.029-.04 10.882-4.918 10.847-10.905a10.848 10.848 0 0 0-10.933-10.804c-6.014.03-10.877 4.946-10.81 10.926.068 5.992 4.948 10.822 10.896 10.783M22.054 0h2.93c.14.035.278.09.42.102 4.622.354 8.818 1.889 12.428 4.776 7.176 5.739 10.165 13.223 8.877 22.307-.7 4.938-2.433 9.6-4.376 14.168-4.867 11.447-11.075 22.173-17.789 32.62-.191.299-.486.531-.732.794h-.586c-.241-.299-.5-.586-.722-.898-6.06-8.496-11.508-17.359-15.942-26.811C3.945 41.48 1.747 35.743.602 29.655-.49 23.84-.24 18.173 2.564 12.821 5.744 6.755 10.634 2.729 17.256.885 18.816.45 20.453.288 22.055 0"/>
</svg>
