<svg xmlns="http://www.w3.org/2000/svg" xmlns:xlink="http://www.w3.org/1999/xlink" width="45" height="86" viewBox="0 0 45 86">
    <defs>
        <path id="a" d="M44.844 0H0v86h44.844z"/>
    </defs>
    <g fill="none" fill-rule="evenodd">
        <mask id="b" fill="#fff">
            <use xlink:href="#a"/>
        </mask>
        <path fill="#FFF" d="M22.633 7.73c-1.7 0-3.411-.108-5.095.057-.606.059-1.53.693-1.636 1.2-.204.98.601 1.432 1.61 1.429 3.288-.01 6.577.057 9.86-.063.552-.021 1.075-.83 1.611-1.274-.53-.45-1.022-1.222-1.597-1.289-1.565-.18-3.166-.062-4.753-.06zm-.19 72.934c2.183-.013 3.869-1.668 3.892-3.822.025-2.217-1.73-3.963-3.96-3.944-2.125.019-3.905 1.757-3.937 3.844-.032 2.17 1.77 3.935 4.005 3.922zM2.658 70.12H42.14V15.76H2.658v54.36zM6.138 86c-.234-.127-.457-.284-.704-.38C1.94 84.269.01 81.583.009 77.885-.004 54.557-.001 31.229.005 7.901.005 3.74 2.447 1.393 6.138 0h32.386c5.13 2.156 6.322 4.005 6.32 9.61-.01 21.964.002 43.928-.016 65.891 0 1.559.036 3.166-.32 4.665-.735 3.107-3.058 4.814-5.984 5.834H6.138z" mask="url(#b)"/>
    </g>
</svg>
