<svg xmlns="http://www.w3.org/2000/svg" xmlns:xlink="http://www.w3.org/1999/xlink" width="26" height="37" viewBox="0 0 26 37">
    <defs>
        <path id="a" d="M0 36.96V0h25.958v36.96H0z"/>
    </defs>
    <g fill="none" fill-rule="evenodd">
        <mask id="b" fill="#fff">
            <use xlink:href="#a"/>
        </mask>
        <path fill="#FFF" d="M10.109 33.064a1.557 1.557 0 0 1-2.06.68c-3.556-1.79-5.865-5.308-5.99-9.196v-.124c0-.987.125-2.036.312-3.024.125-.617.25-1.172.437-1.728.25-.802 1.123-1.296 1.934-.987.812.247 1.31 1.11.999 1.913-.125.432-.25.926-.375 1.42-.124.802-.25 1.666-.25 2.468.188 2.777 1.81 5.308 4.306 6.542.75.37 1.061 1.296.687 2.036m15.413-11.972c-.75-3.641-2.496-6.974-5.117-9.566-3.058-3.209-5.367-7.035-6.864-11.17-.125-.309-.5-.432-.811-.309a.747.747 0 0 0-.312.309C10.92 4.49 8.61 8.317 5.554 11.526a18.784 18.784 0 0 0-5.18 9.566A31.359 31.359 0 0 0 0 24.486v.062c.25 7.097 6.24 12.651 13.416 12.404 6.864-.185 12.355-5.677 12.542-12.404v-.062c-.062-1.172-.187-2.283-.436-3.394" mask="url(#b)"/>
    </g>
</svg>
