<?xml version="1.0" encoding="UTF-8"?>
<svg width="92px" height="92px" viewBox="0 0 92 92" version="1.1" xmlns="http://www.w3.org/2000/svg" xmlns:xlink="http://www.w3.org/1999/xlink">
    <!-- Generator: Sketch 42 (36781) - http://www.bohemiancoding.com/sketch -->
    <title>Page 1</title>
    <desc>Created with Sketch.</desc>
    <defs></defs>
    <g id="Page-1" stroke="none" stroke-width="1" fill="none" fill-rule="evenodd">
        <g id="login-copy" transform="translate(-511.000000, -261.000000)" fill="#FFFFFF">
            <g id="Page-1" transform="translate(511.000000, 261.000000)">
                <path d="M45.9645533,7.66075888 C24.843841,7.66075888 7.66075888,24.843841 7.66075888,45.9645533 C7.66075888,67.0852655 24.843841,84.2683476 45.9645533,84.2683476 C67.0852655,84.2683476 84.2683476,67.0852655 84.2683476,45.9645533 C84.2683476,24.843841 67.0852655,7.66075888 45.9645533,7.66075888 M45.9645533,91.9291065 C20.6198901,91.9291065 0,71.310174 0,45.9645533 C0,20.6189325 20.6198901,0 45.9645533,0 C71.3092164,0 91.9291065,20.6189325 91.9291065,45.9645533 C91.9291065,71.310174 71.3092164,91.9291065 45.9645533,91.9291065" id="Fill-1"></path>
                <path d="M45.9645533,64.9873667 C43.8492262,64.9873667 42.1341738,63.2723143 42.1341738,61.1569872 L42.1341738,30.7725023 C42.1341738,28.6571753 43.8492262,26.9421229 45.9645533,26.9421229 C48.0798803,26.9421229 49.7949327,28.6571753 49.7949327,30.7725023 L49.7949327,61.1569872 C49.7949327,63.2723143 48.0798803,64.9873667 45.9645533,64.9873667" id="Fill-3"></path>
                <path d="M61.7872762,49.7949327 L31.4018337,49.7949327 C29.2865066,49.7949327 27.5714542,48.0798803 27.5714542,45.9645533 C27.5714542,43.8492262 29.2865066,42.1341738 31.4018337,42.1341738 L61.7872762,42.1341738 C63.9026032,42.1341738 65.6176556,43.8492262 65.6176556,45.9645533 C65.6176556,48.0798803 63.9026032,49.7949327 61.7872762,49.7949327" id="Fill-5"></path>
            </g>
        </g>
    </g>
</svg>