<svg xmlns="http://www.w3.org/2000/svg" xmlns:xlink="http://www.w3.org/1999/xlink" width="64" height="77" viewBox="0 0 64 77">
    <defs>
        <path id="a" d="M0 36.96V0h25.958v36.96H0z"/>
        <path id="c" d="M0 27.97V0h19.968v27.97H0z"/>
        <path id="e" d="M0 22.975V0h15.974v22.975H0z"/>
        <path id="g" d="M0 12.986V0h8.986v12.986H0z"/>
        <path id="i" d="M0 12.986V0h8.986v12.986H0z"/>
        <path id="k" d="M0 12.986V0h8.986v12.986H0z"/>
        <path id="m" d="M0 22.975V0h15.974v22.975H0z"/>
    </defs>
    <g fill="none" fill-rule="evenodd">
        <g transform="translate(0 9)">
            <mask id="b" fill="#fff">
                <use xlink:href="#a"/>
            </mask>
            <path fill="#FFF" d="M10.109 33.064a1.557 1.557 0 0 1-2.06.68c-3.556-1.79-5.865-5.308-5.99-9.196v-.124c0-.987.125-2.036.312-3.024.125-.617.25-1.172.437-1.728.25-.802 1.123-1.296 1.934-.987.812.247 1.31 1.11.999 1.913-.125.432-.25.926-.375 1.42-.124.802-.25 1.666-.25 2.468.188 2.777 1.81 5.308 4.306 6.542.75.37 1.061 1.296.687 2.036m15.413-11.972c-.75-3.641-2.496-6.974-5.117-9.566-3.058-3.209-5.367-7.035-6.864-11.17-.125-.309-.5-.432-.811-.309a.747.747 0 0 0-.312.309C10.92 4.49 8.61 8.317 5.554 11.526a18.784 18.784 0 0 0-5.18 9.566A31.359 31.359 0 0 0 0 24.486v.062c.25 7.097 6.24 12.651 13.416 12.404 6.864-.185 12.355-5.677 12.542-12.404v-.062c-.062-1.172-.187-2.283-.436-3.394" mask="url(#b)"/>
        </g>
        <g transform="translate(26 37)">
            <mask id="d" fill="#fff">
                <use xlink:href="#c"/>
            </mask>
            <path fill="#FFF" d="M7.776 25.022c-.288.56-1.008.794-1.584.513-2.736-1.354-4.512-4.016-4.608-6.958v-.094c0-.747.096-1.54.24-2.288.096-.467.192-.887.336-1.308.192-.607.864-.98 1.488-.747.624.187 1.008.84.768 1.448-.096.327-.192.7-.288 1.074-.096.607-.192 1.26-.192 1.868.144 2.102 1.392 4.016 3.312 4.95.576.28.816.981.528 1.542m11.856-9.06c-.576-2.756-1.92-5.278-3.936-7.24-2.352-2.428-4.128-5.324-5.28-8.453-.096-.233-.384-.327-.624-.233a.57.57 0 0 0-.24.233C8.4 3.4 6.624 6.294 4.272 8.722a14.148 14.148 0 0 0-3.984 7.24A23.36 23.36 0 0 0 0 18.53v.047c.192 5.37 4.8 9.574 10.32 9.387 5.28-.14 9.504-4.297 9.648-9.387v-.047a15.056 15.056 0 0 0-.336-2.569" mask="url(#d)"/>
        </g>
        <g transform="translate(5 54)">
            <mask id="f" fill="#fff">
                <use xlink:href="#e"/>
            </mask>
            <path fill="#FFF" d="M6.22 20.554a.953.953 0 0 1-1.266.422c-2.19-1.113-3.61-3.3-3.687-5.717v-.076c0-.614.077-1.266.192-1.88.077-.384.154-.729.269-1.074.154-.499.691-.806 1.19-.614.5.153.807.69.615 1.19a28.45 28.45 0 0 0-.23.882c-.077.498-.154 1.035-.154 1.534.115 1.726 1.113 3.3 2.65 4.067.46.23.652.805.422 1.266m9.485-7.443c-.461-2.263-1.536-4.335-3.15-5.946C10.677 5.17 9.255 2.792 8.334.22c-.077-.192-.307-.268-.5-.192a.462.462 0 0 0-.191.192C6.72 2.791 5.299 5.17 3.418 7.165A11.712 11.712 0 0 0 .23 13.11c-.115.69-.192 1.42-.23 2.11v.038c.154 4.412 3.84 7.865 8.256 7.711 4.224-.115 7.603-3.529 7.718-7.71v-.039a12.681 12.681 0 0 0-.268-2.11" mask="url(#f)"/>
        </g>
        <g transform="translate(51 59)">
            <mask id="h" fill="#fff">
                <use xlink:href="#g"/>
            </mask>
            <path fill="#FFF" d="M3.5 11.617a.535.535 0 0 1-.714.239A3.776 3.776 0 0 1 .713 8.625v-.043a5.91 5.91 0 0 1 .259-1.67c.086-.282.389-.455.67-.347.28.087.453.39.345.672-.043.152-.086.325-.13.499a5.896 5.896 0 0 0-.086.867c.065.976.627 1.865 1.49 2.299.26.13.368.455.238.715m5.335-4.206c-.259-1.28-.864-2.45-1.77-3.361A11.248 11.248 0 0 1 4.686.125c-.043-.108-.173-.152-.28-.108a.26.26 0 0 0-.109.108A11.249 11.249 0 0 1 1.922 4.05 6.63 6.63 0 0 0 .13 7.41c-.065.391-.108.803-.13 1.193v.022c.086 2.494 2.16 4.445 4.644 4.358 2.376-.065 4.277-1.995 4.342-4.358v-.022a7.2 7.2 0 0 0-.152-1.192" mask="url(#h)"/>
        </g>
        <g transform="translate(55 38)">
            <mask id="j" fill="#fff">
                <use xlink:href="#i"/>
            </mask>
            <path fill="#FFF" d="M3.5 11.617a.535.535 0 0 1-.714.239A3.776 3.776 0 0 1 .713 8.625v-.043a5.91 5.91 0 0 1 .259-1.67c.086-.282.389-.455.67-.347.28.087.453.39.345.672-.043.152-.086.325-.13.499a5.896 5.896 0 0 0-.086.867c.065.976.627 1.865 1.49 2.299.26.13.368.455.238.715m5.335-4.206c-.259-1.28-.864-2.45-1.77-3.361A11.248 11.248 0 0 1 4.686.125c-.043-.108-.173-.152-.28-.108a.26.26 0 0 0-.109.108A11.249 11.249 0 0 1 1.922 4.05 6.63 6.63 0 0 0 .13 7.41c-.065.391-.108.803-.13 1.193v.022c.086 2.494 2.16 4.445 4.644 4.358 2.376-.065 4.277-1.995 4.342-4.358v-.022a7.2 7.2 0 0 0-.152-1.192" mask="url(#j)"/>
        </g>
        <g transform="translate(24)">
            <mask id="l" fill="#fff">
                <use xlink:href="#k"/>
            </mask>
            <path fill="#FFF" d="M3.5 11.617a.535.535 0 0 1-.714.239A3.776 3.776 0 0 1 .713 8.625v-.043a5.91 5.91 0 0 1 .259-1.67c.086-.282.389-.455.67-.347.28.087.453.39.345.672-.043.152-.086.325-.13.499a5.896 5.896 0 0 0-.086.867c.065.976.627 1.865 1.49 2.299.26.13.368.455.238.715m5.335-4.206c-.259-1.28-.864-2.45-1.77-3.361A11.248 11.248 0 0 1 4.686.125c-.043-.108-.173-.152-.28-.108a.26.26 0 0 0-.109.108A11.249 11.249 0 0 1 1.922 4.05 6.63 6.63 0 0 0 .13 7.41c-.065.391-.108.803-.13 1.193v.022c.086 2.494 2.16 4.445 4.644 4.358 2.376-.065 4.277-1.995 4.342-4.358v-.022a7.2 7.2 0 0 0-.152-1.192" mask="url(#l)"/>
        </g>
        <g transform="translate(39 14)">
            <mask id="n" fill="#fff">
                <use xlink:href="#m"/>
            </mask>
            <path fill="#FFF" d="M6.22 20.554a.953.953 0 0 1-1.266.422c-2.19-1.113-3.61-3.3-3.687-5.717v-.076c0-.614.077-1.266.192-1.88.077-.384.154-.729.269-1.074.154-.499.691-.806 1.19-.614.5.153.807.69.615 1.19a28.45 28.45 0 0 0-.23.882c-.077.498-.154 1.035-.154 1.534.115 1.726 1.113 3.3 2.65 4.067.46.23.652.805.422 1.266m9.485-7.443c-.461-2.263-1.536-4.335-3.15-5.946C10.677 5.17 9.255 2.792 8.334.22c-.077-.192-.307-.268-.5-.192a.462.462 0 0 0-.191.192C6.72 2.791 5.299 5.17 3.418 7.165A11.712 11.712 0 0 0 .23 13.11c-.115.69-.192 1.42-.23 2.11v.038c.154 4.412 3.84 7.865 8.256 7.711 4.224-.115 7.603-3.529 7.718-7.71v-.039a12.681 12.681 0 0 0-.268-2.11" mask="url(#n)"/>
        </g>
    </g>
</svg>
