<svg xmlns="http://www.w3.org/2000/svg" width="56" height="76" viewBox="0 0 56 76">
    <path fill="#FFF" fill-rule="evenodd" d="M.129 75.911c-.086-1.032-.13-3.013-.13-5.938C0 59.387 3.099 51.47 9.296 46.22c2.064-1.722 4.689-3.4 7.875-5.036-3.271-1.033-5.465-3.529-6.584-7.488a12.582 12.582 0 0 1-.646-4.002c0-5.765 2.927-9.897 8.779-12.393-1.377-2.495-2.067-4.949-2.065-7.359-.002-3.959 1.936-6.884 5.809-8.779C24.098.388 25.863 0 27.756 0c4.389 0 7.617 1.68 9.682 5.035.947 1.463 1.42 3.1 1.42 4.906 0 2.324-.774 4.777-2.323 7.36 5.938 2.41 8.908 6.54 8.908 12.392 0 4.562-1.68 8.004-5.035 10.328a7.329 7.329 0 0 1-2.324 1.162c7.746 3.96 12.78 8.995 15.106 15.105 1.462 3.787 2.193 8.35 2.193 13.685 0 2.84-.043 4.82-.13 5.938H.13m50.607-5.164c0-9.036-2.453-15.793-7.36-20.269-1.634-1.548-3.657-3.01-6.067-4.388-3.356-1.98-5.035-3.787-5.034-5.423-.001-.86.86-1.808 2.583-2.84 2.667-1.464 4.259-3.185 4.775-5.164.172-.774.258-1.722.258-2.84 0-3.96-2.022-7.058-6.067-9.296L31.5 18.85c-.43-.43-.646-.904-.646-1.419 0-1.464.517-2.927 1.55-4.39.688-.947 1.032-2.066 1.032-3.357 0-2.238-1.205-3.873-3.614-4.906a7.321 7.321 0 0 0-2.324-.387c-2.41 0-4.131 1.076-5.164 3.227-.344.69-.518 1.377-.518 2.066 0 .774.56 2.238 1.68 4.39.688 1.204.988 2.323.903 3.357 0 1.032-.99 2.064-2.97 3.097-3.958 2.324-5.937 5.422-5.937 9.295 0 3.358 1.678 6.026 5.035 8.005 1.635 1.118 2.452 2.065 2.452 2.84 0 1.636-1.678 3.442-5.034 5.423-6.197 3.786-10.156 8.39-11.88 13.812-.944 3.013-1.418 6.628-1.418 10.845h46.089"/>
</svg>
