<svg xmlns="http://www.w3.org/2000/svg" xmlns:xlink="http://www.w3.org/1999/xlink" width="50" height="79" viewBox="0 0 50 79">
    <defs>
        <path id="a" d="M46.54.07H0v49.357h46.54V.071z"/>
        <path id="c" d="M9.542 15.805H.027V.093h9.515v15.712z"/>
    </defs>
    <g fill="none" fill-rule="evenodd">
        <g transform="translate(0 .024)">
            <mask id="b" fill="#fff">
                <use xlink:href="#a"/>
            </mask>
            <path fill="#FFF" d="M25.977 47.042h-5.495c-.656 0-1.312-.33-1.64-.905l-2.788-4.771a1.942 1.942 0 0 1 0-1.892l2.788-4.772c.328-.575.984-.904 1.64-.904h5.495c.656 0 1.312.329 1.64.904l2.788 4.772a1.942 1.942 0 0 1 0 1.892l-2.788 4.77c-.41.494-.984.906-1.64.906zM14.003 38.24c-.328.576-.984.905-1.64.905H6.868c-.656 0-1.312-.33-1.64-.905L2.44 33.469a1.942 1.942 0 0 1 0-1.892l2.788-4.772c.328-.575.984-.904 1.64-.904h5.495c.656 0 1.312.329 1.64.904l2.789 4.772a1.942 1.942 0 0 1 0 1.892l-2.789 4.77zM2.522 17.757a1.942 1.942 0 0 1 0-1.892l2.788-4.771c.328-.576.984-.905 1.64-.905h5.495c.656 0 1.312.329 1.64.905l2.789 4.77a1.941 1.941 0 0 1 0 1.893l-2.789 4.77c-.328.577-.984.906-1.64.906H6.951c-.657 0-1.313-.33-1.64-.905l-2.79-4.771zM16.054 8.05l2.788-4.771c.328-.576.984-.905 1.64-.905h5.495c.656 0 1.312.33 1.64.905l2.788 4.771a1.942 1.942 0 0 1 0 1.892l-2.788 4.771c-.328.576-.984.905-1.64.905h-5.495c-.656 0-1.312-.329-1.64-.905l-2.788-4.77a1.942 1.942 0 0 1 0-1.893zm16.484 3.044c.328-.576.984-.905 1.64-.905h5.495c.656 0 1.312.329 1.64.905l2.788 4.77a1.942 1.942 0 0 1 0 1.893l-2.87 4.77c-.328.577-.984.906-1.64.906h-5.495c-.656 0-1.312-.33-1.64-.905l-2.707-4.771a1.942 1.942 0 0 1 0-1.892l2.789-4.771zm-2.953 36.194l2.789-4.77a4.252 4.252 0 0 0 0-4.196l-2.789-4.771c-.738-1.316-2.132-2.139-3.608-2.139h-5.495c-.41 0-.82.082-1.23.165-.082-.412-.246-.74-.41-1.152l-2.788-4.771c-.164-.33-.492-.658-.739-.905.247-.247.575-.576.739-.905l2.788-4.771c.164-.329.328-.74.41-1.152.41.083.82.165 1.23.165h5.495c.41 0 .902-.082 1.312-.247.082.411.246.823.41 1.152l2.788 4.77c.738 1.317 2.133 2.14 3.609 2.14h5.495c1.476 0 2.87-.823 3.608-2.14l2.788-4.77a4.251 4.251 0 0 0 0-4.196l-2.788-4.77c-.738-1.317-2.132-2.14-3.608-2.14h-5.495c-.41 0-.902.083-1.312.247a4.766 4.766 0 0 0-.41-1.151L29.585 2.21C28.847.893 27.453.07 25.977.07h-5.495c-1.476 0-2.87.823-3.608 2.14l-2.789 4.77c-.164.33-.328.741-.41 1.152-.41-.082-.82-.164-1.23-.164H6.95c-1.476 0-2.87.822-3.608 2.139l-2.788 4.77a4.251 4.251 0 0 0 0 4.196l2.788 4.771c.164.33.492.658.738.905-.246.247-.574.576-.738.905L.554 30.425a4.25 4.25 0 0 0 0 4.195l2.788 4.771c.738 1.316 2.132 2.14 3.608 2.14h5.495c.41 0 .82-.083 1.23-.165.082.41.246.74.41 1.151l2.789 4.771c.738 1.317 2.132 2.14 3.608 2.14h5.495c1.476-.083 2.87-.906 3.608-2.14z" mask="url(#b)"/>
        </g>
        <path fill="#FFF" d="M33.276 60.968a2.471 2.471 0 0 1-2.46-2.468c0-2.056 1.476-6.745 2.46-8.226.902 1.48 2.378 6.087 2.378 8.226.082 1.399-1.066 2.468-2.378 2.468m0-13.408c-2.789 0-4.757 9.13-4.757 10.94 0 2.633 2.132 4.771 4.757 4.771 2.624 0 4.756-2.138 4.756-4.77 0-1.646-1.804-10.941-4.756-10.941M39.837 45.997c0-2.057 1.476-6.746 2.46-8.226.902 1.48 2.378 6.087 2.378 8.226 0 1.316-1.066 2.467-2.46 2.467s-2.378-1.151-2.378-2.467m7.216 0c0-1.646-1.804-10.941-4.756-10.941-2.788 0-4.757 9.13-4.757 10.94 0 2.633 2.133 4.772 4.757 4.772 2.624 0 4.756-2.14 4.756-4.771"/>
        <g transform="translate(40.056 62.767)">
            <mask id="d" fill="#fff">
                <use xlink:href="#c"/>
            </mask>
            <path fill="#FFF" d="M4.783 13.42a2.471 2.471 0 0 1-2.46-2.469c0-2.056 1.476-6.745 2.46-8.226.902 1.48 2.379 6.088 2.379 8.226.082 1.399-.985 2.468-2.379 2.468m0-13.326C1.995.093.027 9.223.027 11.033c0 2.633 2.132 4.772 4.756 4.772 2.625 0 4.757-2.14 4.757-4.772C9.622 9.306 7.818.093 4.783.093" mask="url(#d)"/>
        </g>
    </g>
</svg>
