<svg xmlns="http://www.w3.org/2000/svg" width="79" height="85" viewBox="0 0 79 85">
    <path fill="#FFF" fill-rule="evenodd" d="M39.117 80.3c8.09 0 13.685-.517 16.783-1.55.775-.257 1.162-.558 1.162-.903 0-2.237-5.939-3.357-17.816-3.357-4.562 0-8.994.302-13.297.904-3.185.517-4.777 1.334-4.777 2.453 0 1.29 5.078 2.109 15.234 2.453h2.711M4.647 41.183c0 2.668 2.11 6.713 6.326 12.135 1.033 1.29 1.765 2.238 2.195 2.84h2.324c8.865 0 15.32-.602 19.365-1.807 1.291-.344 1.936-.775 1.936-1.291-.688-7.488-3.572-13.426-8.65-17.816-4.217-3.787-8.219-5.68-12.006-5.68-1.205 0-2.496.257-3.873.775-3.442.859-5.766 3.14-6.97 6.842l-.647 3.485v.517m34.47 17.429c-2.152.946-8.693 1.764-19.623 2.452-1.635.086-2.969.173-4.002.258.86 3.27 1.42 6.886 1.678 10.845 5.94-1.894 13.254-2.841 21.947-2.841 8.865 0 16.181.947 21.947 2.84.258-4.303.818-7.917 1.678-10.844l-19.106-1.55c-1.636-.257-3.142-.644-4.519-1.16m34.47-17.43c0-3.872-1.29-6.841-3.873-8.907-2.152-1.807-4.69-2.711-7.617-2.711-3.7 0-7.703 1.893-12.006 5.68-5.078 4.39-7.962 10.328-8.65 17.816 0 .602 1.592 1.29 4.777 2.066 3.7.688 9.983 1.032 18.848 1.032l5.81-7.746c1.807-2.754 2.711-5.164 2.711-7.23m-34.47.259l3.744-5.94c.602-1.29 1.076-2.494 1.42-3.613.172-.603.258-1.851.258-3.744 0-5.078-1.764-7.617-5.293-7.617-3.7 0-5.55 2.539-5.55 7.617 0 1.893.085 3.14.257 3.744.688 2.324 2.152 5.078 4.39 8.262.516.603.774 1.033.774 1.29m0 43.507c-17.127 0-25.82-2.882-26.078-8.65-.43-7.917-1.764-13.9-4.002-17.944-.947-1.635-2.28-3.615-4.003-5.94-2.926-3.871-4.56-7.142-4.905-9.81A17.733 17.733 0 0 1 0 40.408c0-5.422 2.281-9.682 6.842-12.781a18.61 18.61 0 0 1 3.486-1.68c4.561-1.633 9.08-1.376 13.555.777 1.635.774 3.271 1.806 4.906 3.097l.13.13c0-1.807.085-3.744.257-5.81 0-.602.301-1.42.904-2.452 1.377-2.24 3.012-4.002 4.906-5.293a6.765 6.765 0 0 0 1.033-.646v-3.098l-5.294-3.098v-4.65h4.777L37.18 0h3.874l1.678 4.905h4.777v4.649l-5.294 3.098v3.098c4.476 2.84 6.756 5.68 6.843 8.52.172 1.72.258 3.616.258 5.68l.13-.13c5.421-4.56 11.102-6.022 17.04-4.387a16.647 16.647 0 0 1 4.39 1.936c4.82 2.926 7.272 7.273 7.358 13.039 0 3.443-1.72 7.53-5.164 12.265-2.84 3.959-4.604 6.842-5.293 8.649-1.463 3.874-2.324 8.865-2.582 14.976-.172 5.767-8.865 8.649-26.078 8.649"/>
</svg>
