<svg xmlns="http://www.w3.org/2000/svg" width="68" height="54" viewBox="0 0 68 54">
    <path fill="#FFF" fill-rule="evenodd" d="M63.976 19.68L52.73 45.97c-.998 2.332-3.983 4.303-6.52 4.303h-28c-5.509 0-9.826-1.58-12.482-4.57-2.146-2.416-3.053-5.615-2.622-9.251.752-6.347 6.285-10.958 12.873-10.7 2.725.102 5.281 1.24 7.013 3.123 1.492 1.62 2.26 3.665 2.165 5.758-.172 3.781-3.785 7.099-7.73 7.099-2.343 0-4.319-.792-5.423-2.173-.803-1.004-1.068-2.235-.77-3.559.463-2.049 2.234-3.989 5.164-3.724 1.61.149 2.722 1.161 2.646 2.406-.109 1.795-1.758 1.925-2.302 1.924-.827.022-1.515.638-1.534 1.466a1.5 1.5 0 0 0 1.465 1.534c2.034.016 5.147-1.178 5.364-4.741.176-2.879-2.13-5.275-5.363-5.575-4.706-.444-7.64 2.828-8.367 6.048-.5 2.213-.02 4.377 1.352 6.094 1.676 2.097 4.507 3.3 7.767 3.3 4.336 0 8.263-2.771 9.91-6.545.033-.056.075-.103.102-.164l9.183-21.465h25.294c.987 0 1.732.305 2.097.857s.353 1.357-.036 2.265zM14.052 9.419c1.681-3.969 6.502-6.607 11.743-6.409 2.725.102 5.281 1.241 7.014 3.124 1.491 1.621 2.26 3.665 2.164 5.757-.038.829-.315 1.629-.72 2.577-.003.003-.004.007-.006.011l-6.816 15.933a11.315 11.315 0 0 0-2.23-3.569c-2.272-2.467-5.59-3.958-9.109-4.089-3.146-.116-6.094.671-8.589 2.127l6.55-15.462zm52.464 6.343c-.925-1.401-2.602-2.205-4.6-2.205H37.73c.121-.488.215-.992.24-1.529.132-2.897-.917-5.712-2.953-7.925-2.27-2.467-5.59-3.958-9.11-4.09C19.348-.235 13.48 3.078 11.29 8.25L1.46 31.458c-.007.016-.01.032-.016.048a15.01 15.01 0 0 0-1.316 4.593c-.535 4.512.626 8.521 3.358 11.597 3.242 3.649 8.334 5.578 14.725 5.578h28c3.733 0 7.81-2.689 9.277-6.123l11.246-26.29c.788-1.84.708-3.698-.217-5.099z"/>
</svg>
