<svg xmlns="http://www.w3.org/2000/svg" width="19" height="13" viewBox="0 0 19 13">
    <path fill="#FFF" fill-rule="evenodd" d="M15.11 2.006s0-.143 0 0c-.748-.716-1.645-1.002-2.543-.859.898-.143 1.346-.43 1.496-.573 0-.143 0-.286-.15-.286a2.93 2.93 0 0 0-1.197.286c.449-.286.599-.429.599-.572-.449 0-.898.286-1.496.715.149-.286.299-.429.149-.572-.299.143-.448.286-.598.572-.449.43-.748.716-.898 1.146-.598 1.001-1.047 1.86-1.346 2.863h-.15A3.487 3.487 0 0 0 7.63 3.58c-.599-.428-1.347-.716-2.244-1.144-.898-.43-1.796-.86-2.843-1.146 0 1.002.449 1.862 1.496 2.433-.299 0-.748 0-1.047.144 0 .859.748 1.574 2.095 1.861-.449 0-.898.143-1.347.43.449.858 1.197 1.144 2.394 1.144-.15.144-.449.287-.449.287-.15.143-.299.429-.15.715.3.431.599.574 1.347.574-1.047 1.001-2.394 1.574-3.89 1.431-.898 0-1.945-.43-2.992-1.289 1.047 1.432 2.543 2.578 4.339 3.293 2.094.573 4.188.716 6.133.143a10.7 10.7 0 0 0 5.087-3.293c.598-.859 1.047-1.717 1.197-2.576 1.047 0 1.795-.287 2.244-.859-.299.143-1.047.143-2.095-.143 1.048-.144 1.796-.43 1.945-1.003a3.042 3.042 0 0 1-2.244 0c-.149-1.002-.598-1.861-1.496-2.576z"/>
</svg>
