<?xml version="1.0" encoding="UTF-8"?>
<svg width="28px" height="31px" viewBox="0 0 28 31" version="1.1" xmlns="http://www.w3.org/2000/svg" xmlns:xlink="http://www.w3.org/1999/xlink">
    <!-- Generator: Sketch 46.2 (44496) - http://www.bohemiancoding.com/sketch -->
    <title>calendar-side</title>
    <desc>Created with Sketch.</desc>
    <defs></defs>
    <g id="Page-1" stroke="none" stroke-width="1" fill="none" fill-rule="evenodd">
        <g id="calendar-side" transform="translate(-6.000000, -5.000000)">
            <rect id="Rectangle-2" x="0" y="0" width="40" height="40"></rect>
            <path d="M7.9742111,21.7358053 L12.9514367,21.7358053 L12.9514367,16.8535919 L7.9742111,16.8535919 L7.9742111,21.7358053 Z M14.3452504,21.7252849 L19.3296238,21.7252849 L19.3296238,16.8706101 L14.3452504,16.8706101 L14.3452504,21.7252849 Z M20.6827747,21.7136816 L25.6850969,21.7136816 L25.6850969,16.855139 L20.6827747,16.855139 L20.6827747,21.7136816 Z M27.0450778,21.7053272 L32.0300866,21.7053272 L32.0300866,16.8504977 L27.0450778,16.8504977 L27.0450778,21.7053272 Z M7.96547494,27.9118663 L12.960014,27.9118663 L12.960014,23.0610593 L7.96547494,23.0610593 L7.96547494,27.9118663 Z M14.3458858,27.913104 L19.3302591,27.913104 L19.3302591,23.0596669 L14.3458858,23.0596669 L14.3458858,27.913104 Z M20.692305,27.9202207 L25.6757253,27.9202207 L25.6757253,23.0525502 L20.692305,23.0525502 L20.692305,27.9202207 Z M27.0353887,27.9030478 L32.0116613,27.9030478 L32.0116613,23.0424939 L27.0353887,23.0424939 L27.0353887,27.9030478 Z M7.98390028,34.0825125 L12.9697032,34.0825125 L12.9697032,29.2276829 L7.98390028,29.2276829 L7.98390028,34.0825125 Z M14.3195185,34.0910216 L19.3038919,34.0910216 L19.3038919,29.231396 L14.3195185,29.231396 L14.3195185,34.0910216 Z M20.6746738,34.098293 L25.6649243,34.098293 L25.6649243,29.2515084 L20.6746738,29.2515084 L20.6746738,34.098293 Z M27.0342768,34.0925687 L32.0407288,34.0925687 L32.0407288,29.2298489 L27.0342768,29.2298489 L27.0342768,34.0925687 Z M32.0718613,36 L7.92830657,36 C6.48557034,35.3924501 5.98554462,34.3218503 6.00031666,32.8058378 C6.05527501,27.1616729 6.02223646,21.5167346 6.02223646,15.8719509 L6.02223646,15 L33.9779313,15 L33.9779313,15.8708679 C33.9779313,21.5154969 33.9453693,27.1604353 33.9996923,32.8046001 C34.0143056,34.3199938 33.5103088,35.3895106 32.0718613,36 L32.0718613,36 Z" id="Fill-1" fill="#FFFFFF" fill-rule="nonzero"></path>
            <path d="M12.6753174,9.80155181 C11.750831,10.5899025 11.5288205,11.3402662 11.865417,12.1837383 C12.1757542,12.961582 12.9251787,13.4478151 13.7395352,13.399806 C14.5698065,13.3506654 15.2963138,12.7271944 15.4930198,11.8948758 C15.67588,11.1205884 15.3739777,10.4128994 14.5823792,9.89530686 C14.5823792,10.4164556 14.5889042,10.8889488 14.5807877,11.3611186 C14.5701248,11.9915405 14.2671084,12.4118218 13.6335431,12.415378 C13.0017285,12.4186109 12.6880492,12.0083517 12.6769089,11.3738887 C12.6687924,10.8992941 12.6753174,10.424538 12.6753174,9.80155181 L12.6753174,9.80155181 Z M25.4070989,9.80155181 C24.4826125,10.5899025 24.2606021,11.3402662 24.5971985,12.1837383 C24.9073765,12.961582 25.6569602,13.4478151 26.4714759,13.399806 C27.3014289,13.3506654 28.0280953,12.7271944 28.2246422,11.8948758 C28.4076615,11.1205884 28.1056001,10.4128994 27.3141607,9.89530686 C27.3141607,10.4164556 27.3205265,10.8889488 27.3127283,11.3611186 C27.3019063,11.9915405 26.9990491,12.4118218 26.3653246,12.415378 C25.7336691,12.4186109 25.4196716,12.0083517 25.4088495,11.3738887 C25.4005739,10.8992941 25.4070989,10.424538 25.4070989,9.80155181 L25.4070989,9.80155181 Z M26.6788447,5 C27.1817501,5.31440272 27.3515603,5.76992295 27.3245052,6.36381271 C27.2880605,7.1654184 27.3154338,7.97009537 27.3154338,8.87951937 C28.5709466,8.87951937 29.7788744,8.8782262 30.9871205,8.87984266 C33.0369373,8.88242901 33.9957995,9.85796649 33.99946,11.9428849 C34.000574,12.6114554 33.9996191,13.2798642 33.9996191,14 L6.03760317,14 C6.03760317,12.9950428 5.93813613,11.9723045 6.06274844,10.978501 C6.21791703,9.74044938 7.27545063,8.90861577 8.52618901,8.88695512 C9.87321149,8.86351635 11.2208706,8.88162078 12.6738851,8.88162078 C12.6738851,8.00872892 12.7009402,7.18481599 12.6649729,6.36332777 C12.6388727,5.76992295 12.8031127,5.31213966 13.3104742,5 L13.9470633,5 C14.4494912,5.31391778 14.6185056,5.76927636 14.5925646,6.36235789 C14.5567565,7.18319953 14.5836523,8.00678916 14.5836523,8.82472116 L25.4056666,8.82472116 C25.4056666,7.96734738 25.4327216,7.16315534 25.3967544,6.36187295 C25.3701768,5.76879142 25.535849,5.31181637 26.0422557,5 L26.6788447,5 Z" id="Fill-3" fill="#FFFFFF" fill-rule="nonzero"></path>
        </g>
    </g>
</svg>