<?xml version="1.0" encoding="UTF-8"?>
<svg width="28px" height="31px" viewBox="0 0 28 31" version="1.1" xmlns="http://www.w3.org/2000/svg" xmlns:xlink="http://www.w3.org/1999/xlink">
    <!-- Generator: Sketch 46.2 (44496) - http://www.bohemiancoding.com/sketch -->
    <title>calendar-side</title>
    <desc>Created with Sketch.</desc>
    <defs></defs>
    <g id="Page-1" stroke="none" stroke-width="1" fill="none" fill-rule="evenodd">
        <g id="calendar-side" fill-rule="nonzero" fill="#FFFFFF">
            <path d="M1.9742111,16.7358053 L6.95143665,16.7358053 L6.95143665,11.8535919 L1.9742111,11.8535919 L1.9742111,16.7358053 Z M8.34525042,16.7252849 L13.3296238,16.7252849 L13.3296238,11.8706101 L8.34525042,11.8706101 L8.34525042,16.7252849 Z M14.6827747,16.7136816 L19.6850969,16.7136816 L19.6850969,11.855139 L14.6827747,11.855139 L14.6827747,16.7136816 Z M21.0450778,16.7053272 L26.0300866,16.7053272 L26.0300866,11.8504977 L21.0450778,11.8504977 L21.0450778,16.7053272 Z M1.96547494,22.9118663 L6.96001398,22.9118663 L6.96001398,18.0610593 L1.96547494,18.0610593 L1.96547494,22.9118663 Z M8.34588579,22.913104 L13.3302591,22.913104 L13.3302591,18.0596669 L8.34588579,18.0596669 L8.34588579,22.913104 Z M14.692305,22.9202207 L19.6757253,22.9202207 L19.6757253,18.0525502 L14.692305,18.0525502 L14.692305,22.9202207 Z M21.0353887,22.9030478 L26.0116613,22.9030478 L26.0116613,18.0424939 L21.0353887,18.0424939 L21.0353887,22.9030478 Z M1.98390028,29.0825125 L6.96970317,29.0825125 L6.96970317,24.2276829 L1.98390028,24.2276829 L1.98390028,29.0825125 Z M8.31951848,29.0910216 L13.3038919,29.0910216 L13.3038919,24.231396 L8.31951848,24.231396 L8.31951848,29.0910216 Z M14.6746738,29.098293 L19.6649243,29.098293 L19.6649243,24.2515084 L14.6746738,24.2515084 L14.6746738,29.098293 Z M21.0342768,29.0925687 L26.0407288,29.0925687 L26.0407288,24.2298489 L21.0342768,24.2298489 L21.0342768,29.0925687 Z M26.0718613,31 L1.92830657,31 C0.48557034,30.3924501 -0.0144553849,29.3218503 0.000316658522,27.8058378 C0.0552750133,22.1616729 0.0222364647,16.5167346 0.0222364647,10.8719509 L0.0222364647,10 L27.9779313,10 L27.9779313,10.8708679 C27.9779313,16.5154969 27.9453693,22.1604353 27.9996923,27.8046001 C28.0143056,29.3199938 27.5103088,30.3895106 26.0718613,31 L26.0718613,31 Z" id="Fill-1"></path>
            <path d="M6.67531744,4.80155181 C5.75083097,5.58990247 5.52882053,6.34026618 5.865417,7.18373835 C6.17575418,7.96158198 6.92517866,8.44781508 7.73953523,8.39980602 C8.56980653,8.35066545 9.29631381,7.72719435 9.49301984,6.8948758 C9.67588005,6.12058839 9.37397768,5.4128994 8.58237916,4.89530686 C8.58237916,5.41645563 8.58890421,5.88894876 8.58078769,6.36111859 C8.57012483,6.99154049 8.26710842,7.41182176 7.63354315,7.41537798 C7.0017285,7.41861092 6.68804923,7.00835174 6.67690892,6.37388868 C6.66879241,5.89929414 6.67531744,5.42453796 6.67531744,4.80155181 L6.67531744,4.80155181 Z M19.4070989,4.80155181 C18.4826125,5.58990247 18.2606021,6.34026618 18.5971985,7.18373835 C18.9073765,7.96158198 19.6569602,8.44781508 20.4714759,8.39980602 C21.3014289,8.35066545 22.0280953,7.72719435 22.2246422,6.8948758 C22.4076615,6.12058839 22.1056001,5.4128994 21.3141607,4.89530686 C21.3141607,5.41645563 21.3205265,5.88894876 21.3127283,6.36111859 C21.3019063,6.99154049 20.9990491,7.41182176 20.3653246,7.41537798 C19.7336691,7.41861092 19.4196716,7.00835174 19.4088495,6.37388868 C19.4005739,5.89929414 19.4070989,5.42453796 19.4070989,4.80155181 L19.4070989,4.80155181 Z M20.6788447,0 C21.1817501,0.314402716 21.3515603,0.769922948 21.3245052,1.36381271 C21.2880605,2.1654184 21.3154338,2.97009537 21.3154338,3.87951937 C22.5709466,3.87951937 23.7788744,3.8782262 24.9871205,3.87984266 C27.0369373,3.88242901 27.9957995,4.85796649 27.99946,6.94288485 C28.000574,7.61145536 27.9996191,8.27986422 27.9996191,9 L0.0376031715,9 C0.0376031715,7.99504284 -0.0618638714,6.97230454 0.06274844,5.978501 C0.217917026,4.74044938 1.27545063,3.90861577 2.52618901,3.88695512 C3.87321149,3.86351635 5.22087056,3.88162078 6.67388513,3.88162078 C6.67388513,3.00872892 6.70094015,2.18481599 6.66497288,1.36332777 C6.63887273,0.769922948 6.8031127,0.312139663 7.3104742,0 L7.94706327,0 C8.4494912,0.313917776 8.6185056,0.769276362 8.59256459,1.36235789 C8.55675646,2.18319953 8.58365234,3.00678916 8.58365234,3.82472116 L19.4056666,3.82472116 C19.4056666,2.96734738 19.4327216,2.16315534 19.3967544,1.36187295 C19.3701768,0.768791422 19.535849,0.311816369 20.0422557,0 L20.6788447,0 Z" id="Fill-3"></path>
        </g>
    </g>
</svg>