<?xml version="1.0" encoding="UTF-8"?>
<svg width="32px" height="31px" viewBox="0 0 32 31" version="1.1" xmlns="http://www.w3.org/2000/svg" xmlns:xlink="http://www.w3.org/1999/xlink">
    <!-- Generator: Sketch 46.2 (44496) - http://www.bohemiancoding.com/sketch -->
    <title>car-second-side</title>
    <desc>Created with Sketch.</desc>
    <defs>
        <polygon id="path-1" points="26.6666667 0 9.82374151e-16 0 0 21.3333333 26.6666667 21.3333333"></polygon>
    </defs>
    <g id="Page-1" stroke="none" stroke-width="1" fill="none" fill-rule="evenodd">
        <g id="car-second-side" transform="translate(-4.000000, -5.000000)">
            <rect id="Rectangle-2" x="0" y="0" width="40" height="40"></rect>
            <circle id="Oval" fill="#FFFFFF" fill-rule="nonzero" cx="30.2222222" cy="10.7777778" r="5.77777778"></circle>
            <g id="Page-1" transform="translate(4.000000, 13.888889)">
                <g id="Fill-1-Clipped">
                    <mask id="mask-2" fill="white">
                        <use xlink:href="#path-1"></use>
                    </mask>
                    <g id="path-1"></g>
                    <path d="M6.11470874,6.83340351 C9.81065378,7.37122807 16.8548539,7.37122807 20.5531169,6.83340351 C20.2228114,6.12491228 19.6456459,4.96729825 19.0082141,4.05445614 C18.8598664,3.84449123 18.6361859,3.70189474 18.3777363,3.65698245 C16.7725673,3.37740351 15.3111101,3.26287719 13.3339128,3.26287719 C11.3555565,3.26287719 9.89409938,3.37740351 8.28893042,3.65698245 C8.03395772,3.70077193 7.8044823,3.84561404 7.65961146,4.05445614 C7.02102076,4.96729825 6.44385531,6.12491228 6.11470874,6.83340351 L6.11470874,6.83340351 Z M13.3339128,8.38736842 C10.1965898,8.38736842 7.07317427,8.16954386 5.18058151,7.81922807 L4.48751938,7.69122807 L4.7517638,7.05684211 C4.78769177,6.97150877 5.64416822,4.93473684 6.69882799,3.42568421 C7.0198618,2.96757895 7.52401235,2.64870175 8.08495227,2.55214035 C9.76081822,2.26021052 11.2813827,2.14007018 13.3339128,2.14007018 C15.3841251,2.14007018 16.9058484,2.26021052 18.5828733,2.55214035 C19.1414954,2.64982456 19.6456459,2.96757895 19.9666797,3.4234386 C21.0224984,4.93473684 21.8789749,6.97150877 21.9149028,7.05684211 L22.1803062,7.69122807 L21.4872441,7.81922807 C19.5934924,8.16954386 16.4700769,8.38736842 13.3339128,8.38736842 L13.3339128,8.38736842 Z M4.64166196,11.2280701 C4.00191229,11.2280701 3.48269517,11.7322105 3.48269517,12.3508772 C3.48269517,12.9695438 4.00191229,13.4736842 4.64166196,13.4736842 C5.28025266,13.4736842 5.80062874,12.9695438 5.80062874,12.3508772 C5.80062874,11.7322105 5.28025266,11.2280701 4.64166196,11.2280701 L4.64166196,11.2280701 Z M4.64166196,14.5964912 C3.36216263,14.5964912 2.3237284,13.5893333 2.3237284,12.3508772 C2.3237284,11.1124211 3.36216263,10.1052632 4.64166196,10.1052632 C5.92000232,10.1052632 6.95959552,11.1124211 6.95959552,12.3508772 C6.95959552,13.5893333 5.92000232,14.5964912 4.64166196,14.5964912 L4.64166196,14.5964912 Z M17.3902965,14.5964912 L9.27752907,14.5964912 C8.63777942,14.5964912 8.1185623,14.0923508 8.1185623,13.4736842 C8.1185623,12.8550175 8.63777942,12.3508772 9.27752907,12.3508772 L17.3902965,12.3508772 C18.0288873,12.3508772 18.5492633,12.8550175 18.5492633,13.4736842 C18.5492633,14.0923508 18.0288873,14.5964912 17.3902965,14.5964912 L17.3902965,14.5964912 Z M22.0261636,11.2280701 C21.386414,11.2280701 20.8671969,11.7322105 20.8671969,12.3508772 C20.8671969,12.9695438 21.386414,13.4736842 22.0261636,13.4736842 C22.6647544,13.4736842 23.1851305,12.9695438 23.1851305,12.3508772 C23.1851305,11.7322105 22.6647544,11.2280701 22.0261636,11.2280701 L22.0261636,11.2280701 Z M22.0261636,14.5964912 C20.7466644,14.5964912 19.7082301,13.5893333 19.7082301,12.3508772 C19.7082301,11.1124211 20.7466644,10.1052632 22.0261636,10.1052632 C23.304504,10.1052632 24.3440972,11.1124211 24.3440972,12.3508772 C24.3440972,13.5893333 23.304504,14.5964912 22.0261636,14.5964912 L22.0261636,14.5964912 Z M23.7692497,5.58821052 L24.389297,6.69417544 C24.7833457,6.65824562 25.3477625,6.53922807 25.3477625,6.16084211 L25.3477625,5.58821052 L23.7692497,5.58821052 Z M1.15896678,5.78582456 L1.15896678,6.35957895 C1.15896678,6.73796492 1.72222464,6.85698245 2.11627334,6.89291228 L2.73632057,5.78582456 L1.15896678,5.78582456 Z M5.22114535,17.9649123 L21.4466803,17.9649123 L21.4466803,19.6491228 C21.4466803,19.9590175 21.7062888,20.2105263 22.0261636,20.2105263 L23.7646139,20.2105263 C24.0833297,20.2105263 24.3440972,19.9590175 24.3440972,19.6491228 L24.389297,17.3574737 C25.0974257,15.7215438 25.5076999,14.5010526 25.5076999,13.1054035 C25.5076999,11.6805614 25.2110044,10.565614 24.4808553,9.25529822 L24.2629696,8.8634386 C23.3659292,7.24884211 22.2486853,5.23901755 21.0989902,3.38077193 C20.1602272,1.86385965 19.781245,1.68533333 18.8540716,1.52364912 C17.1944312,1.23508772 15.6472105,1.12280701 13.3339128,1.12280701 C11.0194562,1.12280701 9.47107653,1.23508772 7.81375404,1.52364912 C6.88542164,1.68533333 6.50643951,1.86385965 5.56767642,3.38077193 C4.43188897,5.2165614 3.32623466,7.20505263 2.43730714,8.80280701 L2.18465238,9.25529822 C1.45566228,10.565614 1.15896678,11.6816842 1.15896678,13.1054035 C1.15896678,14.5021755 1.56924102,15.7226667 2.27736972,17.3574737 L2.3237284,17.5741755 L2.3237284,19.6491228 C2.3237284,19.9590175 2.58333695,20.2105263 2.90321179,20.2105263 L4.64166196,20.2105263 C4.96037782,20.2105263 5.22114535,19.9590175 5.22114535,19.6491228 L5.22114535,17.9649123 Z M23.7646139,21.3333333 L22.0261636,21.3333333 C21.0665392,21.3333333 20.2877135,20.5776842 20.2877135,19.6491228 L20.2877135,19.0877193 L6.38011213,19.0877193 L6.38011213,19.6491228 C6.38011213,20.5776842 5.60012748,21.3333333 4.64166196,21.3333333 L2.90321179,21.3333333 C1.94358729,21.3333333 1.16476162,20.5776842 1.16476162,19.6491228 L1.16476162,17.6875789 C0.425340809,15.9719299 0,14.6593684 0,13.1054035 C0,11.5020351 0.347690035,10.1905965 1.16476162,8.72308772 L1.41741637,8.27059649 C1.47536471,8.16617544 1.53331305,8.05950877 1.59357932,7.95284211 C0.592232025,7.75073684 0,7.17922807 0,6.35957895 L0,5.78582456 C0,5.16715789 0.519217118,4.66301755 1.15896678,4.66301755 L3.45835687,4.66301755 C3.82111348,4.04098245 4.19545975,3.41445614 4.57444188,2.80364912 C5.59780956,1.14975438 6.22133368,0.659087719 7.60977588,0.418807018 C9.34011333,0.117894737 10.9452823,0 13.3339128,0 C15.7213844,0 17.3265533,0.117894737 19.0580498,0.418807018 C20.445333,0.659087719 21.0688572,1.14975438 22.0922248,2.80364912 C22.4306431,3.34933333 22.7655844,3.90849123 23.0924132,4.46540351 L25.3477625,4.46540351 C25.9863532,4.46540351 26.5067292,4.96842105 26.5067292,5.58821052 L26.5067292,6.16084211 C26.5067292,6.96814035 25.9318817,7.53515789 24.9571907,7.74512281 C25.0684515,7.94498245 25.1773943,8.14147368 25.2840193,8.33122807 L25.500746,8.72308772 C26.3189766,10.1905965 26.6666667,11.5009123 26.6666667,13.1054035 C26.6666667,14.6582456 26.2413259,15.970807 25.503064,17.6875789 L25.503064,19.6491228 C25.503064,20.5776842 24.7230794,21.3333333 23.7646139,21.3333333 L23.7646139,21.3333333 Z" id="Fill-1" fill="#FFFFFF" fill-rule="nonzero" mask="url(#mask-2)"></path>
                </g>
            </g>
        </g>
    </g>
</svg>