<?xml version="1.0" encoding="UTF-8"?>
<svg width="32px" height="27px" viewBox="0 0 32 27" version="1.1" xmlns="http://www.w3.org/2000/svg" xmlns:xlink="http://www.w3.org/1999/xlink">
    <!-- Generator: Sketch 46.2 (44496) - http://www.bohemiancoding.com/sketch -->
    <title>car-side</title>
    <desc>Created with Sketch.</desc>
    <defs>
        <polygon id="path-1" points="35.8823059 7 4.00055425 7 4.00055425 33.3528024 35.8823059 33.3528024"></polygon>
    </defs>
    <g id="Page-1" stroke="none" stroke-width="1" fill="none" fill-rule="evenodd">
        <g id="car-side" transform="translate(-4.000000, -7.000000)">
            <rect id="Rectangle-2" x="0" y="-1.42108547e-14" width="40" height="40"></rect>
            <mask id="mask-2" fill="white">
                <use xlink:href="#path-1"></use>
            </mask>
            <g id="path-1"></g>
            <path d="M11.3110902,15.4411245 C15.7298353,16.105496 24.1516392,16.105496 28.5731556,15.4411245 C28.1782536,14.5659294 27.4882144,13.1359356 26.7261229,12.0083071 C26.5487634,11.7489387 26.2813385,11.5727901 25.9723451,11.5173102 C24.0532601,11.171948 22.3059922,11.0304743 19.9421229,11.0304743 C17.576868,11.0304743 15.8296,11.171948 13.910515,11.5173102 C13.6056784,11.5714031 13.3313255,11.7503257 13.1581229,12.0083071 C12.3946458,13.1359356 11.7046066,14.5659294 11.3110902,15.4411245 L11.3110902,15.4411245 Z M19.9421229,17.3607282 C16.1912471,17.3607282 12.4569987,17.0916508 10.1942797,16.6589077 L9.36567843,16.5007901 L9.6816,15.7171368 C9.72455425,15.6117251 10.7485281,13.0957127 12.0094431,11.2315889 C12.3932601,10.6656941 12.9960052,10.271787 13.6666458,10.1525053 C15.6702536,9.79188607 17.4881882,9.6434774 19.9421229,9.6434774 C22.3932863,9.6434774 24.2126066,9.79188607 26.2176,10.1525053 C26.8854693,10.273174 27.4882144,10.6656941 27.8720314,11.2288149 C29.134332,13.0957127 30.1583059,15.6117251 30.2012601,15.7171368 L30.5185673,16.5007901 L29.689966,16.6589077 C27.4258615,17.0916508 23.6916131,17.3607282 19.9421229,17.3607282 L19.9421229,17.3607282 Z M9.54996601,20.8698303 C8.78510327,20.8698303 8.1643451,21.4925919 8.1643451,22.2568272 C8.1643451,23.0210625 8.78510327,23.6438241 9.54996601,23.6438241 C10.3134431,23.6438241 10.9355869,23.0210625 10.9355869,22.2568272 C10.9355869,21.4925919 10.3134431,20.8698303 9.54996601,20.8698303 L9.54996601,20.8698303 Z M9.54996601,25.0308211 C8.02024052,25.0308211 6.77872419,23.7866848 6.77872419,22.2568272 C6.77872419,20.7269697 8.02024052,19.4828334 9.54996601,19.4828334 C11.0783059,19.4828334 12.3212078,20.7269697 12.3212078,22.2568272 C12.3212078,23.7866848 11.0783059,25.0308211 9.54996601,25.0308211 L9.54996601,25.0308211 Z M24.7917961,25.0308211 L15.0924497,25.0308211 C14.3275869,25.0308211 13.7068287,24.4080594 13.7068287,23.6438241 C13.7068287,22.8795888 14.3275869,22.2568272 15.0924497,22.2568272 L24.7917961,22.2568272 C25.5552732,22.2568272 26.177417,22.8795888 26.177417,23.6438241 C26.177417,24.4080594 25.5552732,25.0308211 24.7917961,25.0308211 L24.7917961,25.0308211 Z M30.3342797,20.8698303 C29.569417,20.8698303 28.9486588,21.4925919 28.9486588,22.2568272 C28.9486588,23.0210625 29.569417,23.6438241 30.3342797,23.6438241 C31.0977569,23.6438241 31.7199007,23.0210625 31.7199007,22.2568272 C31.7199007,21.4925919 31.0977569,20.8698303 30.3342797,20.8698303 L30.3342797,20.8698303 Z M30.3342797,25.0308211 C28.8045542,25.0308211 27.5630379,23.7866848 27.5630379,22.2568272 C27.5630379,20.7269697 28.8045542,19.4828334 30.3342797,19.4828334 C31.8626196,19.4828334 33.1055216,20.7269697 33.1055216,22.2568272 C33.1055216,23.7866848 31.8626196,25.0308211 30.3342797,25.0308211 L30.3342797,25.0308211 Z M32.4182536,13.9029449 L33.1595608,15.2691368 C33.6306719,15.2247529 34.3054693,15.0777313 34.3054693,14.6103133 L34.3054693,13.9029449 L32.4182536,13.9029449 Z M5.38617517,14.1470564 L5.38617517,14.8558118 C5.38617517,15.3232297 6.05958693,15.4702514 6.53069804,15.5146353 L7.27200523,14.1470564 L5.38617517,14.1470564 Z M10.2427765,29.1918118 L29.6414693,29.1918118 L29.6414693,31.2723071 C29.6414693,31.6551182 29.9518483,31.9658056 30.3342797,31.9658056 L32.4127111,31.9658056 C32.7937569,31.9658056 33.1055216,31.6551182 33.1055216,31.2723071 L33.1595608,28.4414465 C34.0061752,26.4205919 34.496685,24.9129263 34.496685,23.1888892 C34.496685,21.4287901 34.141966,20.0515022 33.2690248,18.4328768 L33.0085281,17.9488149 C31.9360575,15.9543133 30.6003189,13.4715888 29.225783,11.176109 C28.1034301,9.30227616 27.650332,9.08174365 26.5418353,8.8820161 C24.5576262,8.52555789 22.7078222,8.3868582 19.9421229,8.3868582 C17.1750379,8.3868582 15.3238483,8.52555789 13.3424105,8.8820161 C12.2325281,9.08174365 11.7794301,9.30227616 10.6570771,11.176109 C9.29916863,13.4438489 7.97728627,15.9002204 6.91451503,17.8739171 L6.61244968,18.4328768 C5.74089412,20.0515022 5.38617517,21.4301771 5.38617517,23.1888892 C5.38617517,24.9143133 5.87668497,26.4219789 6.72329934,28.4414465 L6.77872419,28.7091368 L6.77872419,31.2723071 C6.77872419,31.6551182 7.08910327,31.9658056 7.47153464,31.9658056 L9.54996601,31.9658056 C9.93101176,31.9658056 10.2427765,31.6551182 10.2427765,31.2723071 L10.2427765,29.1918118 Z M32.4127111,33.3528024 L30.3342797,33.3528024 C29.1869856,33.3528024 28.2558483,32.4193535 28.2558483,31.2723071 L28.2558483,30.5788087 L11.6283974,30.5788087 L11.6283974,31.2723071 C11.6283974,32.4193535 10.6958745,33.3528024 9.54996601,33.3528024 L7.47153464,33.3528024 C6.32424052,33.3528024 5.39310327,32.4193535 5.39310327,31.2723071 L5.39310327,28.8492235 C4.50907712,26.7298923 4.00055425,25.1084929 4.00055425,23.1888892 C4.00055425,21.2082576 4.41624052,19.5882452 5.39310327,17.7754403 L5.69516863,17.2164805 C5.76444968,17.0874898 5.83373072,16.9557251 5.90578301,16.8239603 C4.70860654,16.5743009 4.00055425,15.8683195 4.00055425,14.8558118 L4.00055425,14.1470564 C4.00055425,13.3828211 4.62131242,12.7600594 5.38617517,12.7600594 L8.13524706,12.7600594 C8.5689464,11.9916632 9.01650196,11.2177189 9.4696,10.4631926 C10.6931032,8.42014613 11.4385673,7.81402848 13.0985412,7.51721115 C15.1672732,7.14549598 17.0863581,6.9998613 19.9421229,6.9998613 C22.796502,6.9998613 24.7155869,7.14549598 26.7857046,7.51721115 C28.4442928,7.81402848 29.1897569,8.42014613 30.4132601,10.4631926 C30.8178615,11.1372731 31.2183059,11.8279975 31.609051,12.515948 L34.3054693,12.515948 C35.0689464,12.515948 35.6910902,13.1373226 35.6910902,13.9029449 L35.6910902,14.6103133 C35.6910902,15.6075641 35.0038222,16.3079976 33.838515,16.567366 C33.9715346,16.8142514 34.101783,17.0569759 34.2292601,17.2913783 L34.4883713,17.7754403 C35.4666196,19.5882452 35.8823059,21.2068706 35.8823059,23.1888892 C35.8823059,25.1071059 35.373783,26.7285053 34.4911425,28.8492235 L34.4911425,31.2723071 C34.4911425,32.4193535 33.5586196,33.3528024 32.4127111,33.3528024 L32.4127111,33.3528024 Z" id="Fill-1" fill="#FFFFFF" fill-rule="nonzero" mask="url(#mask-2)"></path>
        </g>
    </g>
</svg>