<svg xmlns="http://www.w3.org/2000/svg" width="26" height="56" viewBox="0 0 26 56">
    <path fill="#FFF" fill-rule="evenodd" d="M25.987 0c-.01.178-.029.356-.029.533-.002 2.877-.009 5.753.008 8.63.003.4-.116.5-.502.496-1.555-.016-3.11-.014-4.666.015-.529.01-1.061.093-1.583.192-.98.186-1.696.986-1.737 2.097-.077 2.025-.067 4.052-.103 6.078-.007.37.238.307.451.307 2.534.002 5.067.001 7.6.001H26l-1.01 9.642h-7.604v.603l-.01 26.915c0 .164-.01.327-.014.491H6.958c.004-.835.01-1.67.01-2.504V28.004H.037c-.011-.196-.026-.34-.026-.485-.002-2.892.006-5.785-.01-8.677-.002-.4.117-.501.503-.498 1.986.018 3.972-.005 5.957.016.424.005.514-.137.516-.535.011-2.594-.001-5.189.091-7.78.068-1.886.46-3.721 1.329-5.425.954-1.87 2.437-3.144 4.408-3.774 1.092-.35 2.248-.5 3.375-.74.158-.033.314-.07.471-.106h9.337z"/>
</svg>
