<svg xmlns="http://www.w3.org/2000/svg" xmlns:xlink="http://www.w3.org/1999/xlink" width="60" height="60" viewBox="0 0 60 60">
    <defs>
        <path id="a" d="M0 .14v59.698h59.848V.14H0z"/>
    </defs>
    <g fill="none" fill-rule="evenodd">
        <g transform="translate(0 .03)">
            <mask id="b" fill="#fff">
                <use xlink:href="#a"/>
            </mask>
            <path fill="#FFF" d="M29.925 5.575c-3.964 0-7.929-.018-11.893.012-.985.007-1.992.061-2.949.273C9.3 7.137 5.47 11.91 5.453 17.866c-.024 8.077-.016 16.154.007 24.231.002.924.088 1.87.295 2.769 1.32 5.737 6.07 9.506 12.017 9.523 8.098.023 16.197.014 24.296-.006.9-.003 1.819-.076 2.695-.27 5.783-1.285 9.613-6.053 9.63-12.01.023-8.077.014-16.154-.006-24.231-.003-.897-.077-1.814-.272-2.687-1.28-5.737-6.043-9.561-11.956-9.604-4.078-.03-8.156-.006-12.234-.006m29.913 24.497c0 3.954.007 7.908-.002 11.862-.018 7.87-4.617 14.432-12.086 16.936-1.842.617-3.879.884-5.83.908-7.985.099-15.972.05-23.957.039C9.367 59.805 2.405 54.339.446 46c-.313-1.333-.413-2.741-.42-4.115C-.012 33.95 0 26.014.01 18.078.02 9.492 5.468 2.578 13.843.592 15.124.29 16.477.175 17.798.17 25.868.131 33.94.132 42.01.155c8.51.025 15.515 5.586 17.403 13.853.305 1.336.388 2.742.406 4.118.052 3.981.019 7.964.019 11.946" mask="url(#b)"/>
        </g>
        <path fill="#FFF" d="M40.798 30.02c.003-5.988-4.823-10.824-10.828-10.851-6.037-.027-10.92 4.82-10.923 10.841-.003 5.989 4.824 10.825 10.828 10.851 6.037.027 10.92-4.82 10.923-10.841m5.44.01c-.013 8.944-7.397 16.285-16.351 16.256-8.974-.03-16.325-7.403-16.279-16.328.047-8.922 7.375-16.208 16.308-16.213 8.962-.006 16.334 7.35 16.321 16.285M48.445 14.01a2.468 2.468 0 0 1-2.517 2.438 2.468 2.468 0 0 1-2.403-2.466 2.468 2.468 0 0 1 2.517-2.438 2.468 2.468 0 0 1 2.403 2.466"/>
    </g>
</svg>
