<svg xmlns="http://www.w3.org/2000/svg" xmlns:xlink="http://www.w3.org/1999/xlink" width="81" height="62" viewBox="0 0 81 62">
    <defs>
        <path id="a" d="M80.843 61.32V0H0v61.32h80.843z"/>
    </defs>
    <g fill="none" fill-rule="evenodd">
        <mask id="b" fill="#fff">
            <use xlink:href="#a"/>
        </mask>
        <path fill="#FFF" d="M55.017 30.69l20.027 20.652V11.216L55.017 30.689zM5.737 51.353l20.37-20.986-20.37-19.98v40.966zm4.01 4.229h61.309L50.965 34.85c-3.15 2.94-5.606 6.552-10.522 6.509-4.9-.044-7.34-3.646-10.455-6.651L9.746 55.583zm-.039-49.93c.5.527.7.745.906.956 8.838 9.035 17.673 18.073 26.519 27.102 2.444 2.495 4.33 2.5 6.769.025 8.832-8.96 17.656-17.926 26.477-26.896.31-.314.557-.69.952-1.187H9.708zM0 61.32h80.843V0H0v61.32z" mask="url(#b)"/>
    </g>
</svg>
