<?xml version="1.0" encoding="UTF-8"?>
<svg width="21px" height="32px" viewBox="0 0 21 32" version="1.1" xmlns="http://www.w3.org/2000/svg" xmlns:xlink="http://www.w3.org/1999/xlink">
    <!-- Generator: Sketch 46.2 (44496) - http://www.bohemiancoding.com/sketch -->
    <title>pointer-side</title>
    <desc>Created with Sketch.</desc>
    <defs></defs>
    <g id="Page-1" stroke="none" stroke-width="1" fill="none" fill-rule="evenodd">
        <g id="pointer-side" transform="translate(-10.000000, -4.000000)">
            <rect id="Rectangle-2" x="0" y="0" width="40" height="40"></rect>
            <path d="M20.5195735,18.8660737 C23.213418,18.8492233 25.3816847,16.7675442 25.366056,14.2130244 C25.350329,11.6451178 23.1725277,9.59002491 20.4810422,9.603318 C17.79398,9.61651747 15.6211918,11.71383 15.6512697,14.265167 C15.681446,16.8219336 17.8619011,18.8826433 20.5195735,18.8660737 M19.8542216,4 L21.1627109,4 C21.2254225,4.01488452 21.287446,4.0386623 21.3510422,4.04334296 C23.4159036,4.19452845 25.2908611,4.84944713 26.9038652,6.08130462 C30.1100179,8.52976061 31.4454398,11.7230041 30.8698303,15.5988757 C30.5568623,17.7057368 29.7827973,19.6948323 28.9148615,21.6441422 C26.7400091,26.5281355 23.9663499,31.1043283 20.9665162,35.5621939 C20.8810004,35.6893208 20.7493848,35.7883637 20.6393938,35.900606 L20.377637,35.900606 C20.2697102,35.7731047 20.1544114,35.6507521 20.0549379,35.5175404 C17.3470373,31.892646 14.9129837,28.1109493 12.9318687,24.0779009 C11.7627602,21.6979698 10.7807052,19.2505436 10.2691834,16.6528679 C9.78046574,14.1711792 9.89261916,11.7537092 11.1456707,9.47029349 C12.5661169,6.88197921 14.7517816,5.16454952 17.7100369,4.37763607 C18.4073344,4.19218812 19.1386415,4.12272704 19.8542216,4" id="Fill-1" fill="#FFFFFF" fill-rule="nonzero"></path>
        </g>
    </g>
</svg>