<?xml version="1.0" encoding="UTF-8"?>
<svg width="21px" height="32px" viewBox="0 0 21 32" version="1.1" xmlns="http://www.w3.org/2000/svg" xmlns:xlink="http://www.w3.org/1999/xlink">
    <!-- Generator: Sketch 46.2 (44496) - http://www.bohemiancoding.com/sketch -->
    <title>pointer-side</title>
    <desc>Created with Sketch.</desc>
    <defs></defs>
    <g id="Page-1" stroke="none" stroke-width="1" fill="none" fill-rule="evenodd">
        <g id="pointer-side" fill-rule="nonzero" fill="#FFFFFF">
            <path d="M10.5195735,14.8660737 C13.213418,14.8492233 15.3816847,12.7675442 15.366056,10.2130244 C15.350329,7.6451178 13.1725277,5.59002491 10.4810422,5.603318 C7.79397998,5.61651747 5.62119176,7.71382996 5.65126971,10.265167 C5.68144596,12.8219336 7.86190111,14.8826433 10.5195735,14.8660737 M9.8542216,0 L11.1627109,0 C11.2254225,0.0148845155 11.287446,0.0386622951 11.3510422,0.0433429603 C13.4159036,0.194528448 15.2908611,0.849447132 16.9038652,2.08130462 C20.1100179,4.52976061 21.4454398,7.72300407 20.8698303,11.5988757 C20.5568623,13.7057368 19.7827973,15.6948323 18.9148615,17.6441422 C16.7400091,22.5281355 13.9663499,27.1043283 10.9665162,31.5621939 C10.8810004,31.6893208 10.7493848,31.7883637 10.6393938,31.900606 L10.377637,31.900606 C10.2697102,31.7731047 10.1544114,31.6507521 10.0549379,31.5175404 C7.34703729,27.892646 4.9129837,24.1109493 2.93186873,20.0779009 C1.76276024,17.6979698 0.780705183,15.2505436 0.26918336,12.6528679 C-0.219534261,10.1711792 -0.107380841,7.75370923 1.1456707,5.47029349 C2.56611686,2.88197921 4.75178159,1.16454952 7.71003693,0.377636073 C8.40733435,0.192188116 9.13864149,0.122727043 9.8542216,0" id="Fill-1"></path>
        </g>
    </g>
</svg>