<?xml version="1.0" encoding="UTF-8"?>
<svg width="64px" height="94px" viewBox="0 0 64 94" version="1.1" xmlns="http://www.w3.org/2000/svg" xmlns:xlink="http://www.w3.org/1999/xlink">
    <!-- Generator: Sketch 42 (36781) - http://www.bohemiancoding.com/sketch -->
    <title>Page 1</title>
    <desc>Created with Sketch.</desc>
    <defs>
        <polygon id="path-1" points="0.0002 -4.26325641e-14 62.994 -6.31088724e-30 62.994 93.9998 0.0002 93.9998 0.0002 -6.31088724e-30"></polygon>
    </defs>
    <g id="Page-1" stroke="none" stroke-width="1" fill="none" fill-rule="evenodd">
        <g id="login-copy" transform="translate(-910.000000, -257.000000)">
            <g id="Page-1" transform="translate(910.823120, 257.000000)">
                <g id="Group-3">
                    <mask id="mask-2" fill="white">
                        <use xlink:href="#path-1"></use>
                    </mask>
                    <g id="Clip-2"></g>
                    <path d="M31.4972,86.2998 C18.3772,86.2998 7.7022,75.6248 7.7022,62.5038 C7.7022,52.3248 22.7332,25.5308 31.4972,11.1428 C40.2632,25.5318 55.2942,52.3258 55.2942,62.5038 C55.2942,75.6248 44.6182,86.2998 31.4972,86.2998 M34.7452,1.7808 C34.0382,0.6708 32.8132,-0.0002 31.4972,-0.0002 C30.1822,-0.0002 28.9572,0.6708 28.2502,1.7798 C25.3592,6.3188 0.0002,46.5718 0.0002,62.5038 C0.0002,79.8698 14.1302,93.9998 31.4962,93.9998 C48.8632,93.9998 62.9942,79.8698 62.9942,62.5038 C62.9952,46.5728 37.6362,6.3188 34.7452,1.7808" id="Fill-1" fill="#FFFFFF" mask="url(#mask-2)"></path>
                </g>
                <path d="M46.5187,58.0088 C44.3927,58.0088 42.6687,59.7328 42.6687,61.8608 C42.6687,67.9678 37.6987,72.9368 31.5897,72.9368 C29.4637,72.9368 27.7397,74.6618 27.7397,76.7868 C27.7397,78.9158 29.4637,80.6388 31.5897,80.6388 C41.9467,80.6388 50.3707,72.2148 50.3707,61.8618 C50.3707,59.7318 48.6467,58.0088 46.5187,58.0088" id="Fill-4" fill="#FFFFFF"></path>
            </g>
        </g>
    </g>
</svg>