<svg width="36px" height="34px" viewBox="0 0 36 34" version="1.1" xmlns="http://www.w3.org/2000/svg" xmlns:xlink="http://www.w3.org/1999/xlink">
    <!-- Generator: Sketch 46.2 (44496) - http://www.bohemiancoding.com/sketch -->
    <desc>Created with Sketch.</desc>
    <defs>
        <polygon id="path-1" points="30 0 1.10517092e-15 0 0 24 30 24"></polygon>
    </defs>
    <g id="Page-1" stroke="none" stroke-width="1" fill="none" fill-rule="evenodd">
        <g id="bron-tumeda-taustaga" transform="translate(-991.000000, -550.000000)">
            <g id="SIDEBAR" transform="translate(970.000000, 400.000000)">
                <g id="car" transform="translate(21.000000, 150.000000)">
                    <g id="Group-6">
                        <g id="Group-5">
                            <circle id="Oval" fill="#FFFFFF" cx="29.5" cy="6.5" r="6.5"></circle>
                            <text id="2" font-family="Montserrat-Light, Montserrat" font-size="9" font-weight="300" line-spacing="0.330000013" fill="#39A4FF">
                                <tspan x="27" y="17.998125">2</tspan>
                            </text>
                            <g id="Page-1" transform="translate(0.000000, 10.000000)">
                                <mask id="mask-2" fill="white">
                                    <use xlink:href="#path-1"></use>
                                </mask>
                                <g id="Clip-2"></g>
                                <path d="M6.87904733,7.68757895 C11.0369855,8.29263158 18.9617106,8.29263158 23.1222565,7.68757895 C22.7506628,6.89052632 22.1013516,5.58821053 21.3842409,4.56126316 C21.2173497,4.32505263 20.9657091,4.16463158 20.6749533,4.11410526 C18.8691382,3.79957895 17.2249989,3.67073684 15.0006519,3.67073684 C12.7750011,3.67073684 11.1308618,3.79957895 9.32504672,4.11410526 C9.03820244,4.16336842 8.78004259,4.32631579 8.61706289,4.56126316 C7.89864835,5.58821053 7.24933722,6.89052632 6.87904733,7.68757895 L6.87904733,7.68757895 Z M15.0006519,9.43578947 C11.4711635,9.43578947 7.95732105,9.19073684 5.8281542,8.79663158 L5.0484593,8.65263158 L5.34573428,7.93894737 C5.38615324,7.84294737 6.34968925,5.55157895 7.53618149,3.85389474 C7.89734452,3.33852632 8.46451389,2.97978947 9.0955713,2.87115789 C10.9809205,2.54273684 12.6915555,2.40757895 15.0006519,2.40757895 C17.3071407,2.40757895 19.0190795,2.54273684 20.9057325,2.87115789 C21.5341823,2.98105263 22.1013516,3.33852632 22.4625147,3.85136842 C23.6503107,5.55157895 24.6138468,7.84294737 24.6542657,7.93894737 L24.9528445,8.65263158 L24.1731496,8.79663158 C22.042679,9.19073684 18.5288365,9.43578947 15.0006519,9.43578947 L15.0006519,9.43578947 Z M5.2218697,12.6315789 C4.50215133,12.6315789 3.91803207,13.1987368 3.91803207,13.8947368 C3.91803207,14.5907368 4.50215133,15.1578947 5.2218697,15.1578947 C5.94028424,15.1578947 6.52570733,14.5907368 6.52570733,13.8947368 C6.52570733,13.1987368 5.94028424,12.6315789 5.2218697,12.6315789 L5.2218697,12.6315789 Z M5.2218697,16.4210526 C3.78243296,16.4210526 2.61419445,15.288 2.61419445,13.8947368 C2.61419445,12.5014737 3.78243296,11.3684211 5.2218697,11.3684211 C6.66000261,11.3684211 7.82954496,12.5014737 7.82954496,13.8947368 C7.82954496,15.288 6.66000261,16.4210526 5.2218697,16.4210526 L5.2218697,16.4210526 Z M19.5640836,16.4210526 L10.4372202,16.4210526 C9.71750185,16.4210526 9.13338259,15.8538947 9.13338259,15.1578947 C9.13338259,14.4618947 9.71750185,13.8947368 10.4372202,13.8947368 L19.5640836,13.8947368 C20.2824982,13.8947368 20.8679212,14.4618947 20.8679212,15.1578947 C20.8679212,15.8538947 20.2824982,16.4210526 19.5640836,16.4210526 L19.5640836,16.4210526 Z M24.7794341,12.6315789 C24.0597158,12.6315789 23.4755965,13.1987368 23.4755965,13.8947368 C23.4755965,14.5907368 24.0597158,15.1578947 24.7794341,15.1578947 C25.4978487,15.1578947 26.0832718,14.5907368 26.0832718,13.8947368 C26.0832718,13.1987368 25.4978487,12.6315789 24.7794341,12.6315789 L24.7794341,12.6315789 Z M24.7794341,16.4210526 C23.3399974,16.4210526 22.1717589,15.288 22.1717589,13.8947368 C22.1717589,12.5014737 23.3399974,11.3684211 24.7794341,11.3684211 C26.217567,11.3684211 27.3871094,12.5014737 27.3871094,13.8947368 C27.3871094,15.288 26.217567,16.4210526 24.7794341,16.4210526 L24.7794341,16.4210526 Z M26.7404059,6.28673684 L27.4379591,7.53094737 C27.8812639,7.49052632 28.5162328,7.35663158 28.5162328,6.93094737 L28.5162328,6.28673684 L26.7404059,6.28673684 Z M1.30383763,6.50905263 L1.30383763,7.15452632 C1.30383763,7.58021053 1.93750272,7.71410526 2.38080751,7.75452632 L3.07836064,6.50905263 L1.30383763,6.50905263 Z M5.87378852,20.2105263 L24.1275153,20.2105263 L24.1275153,22.1052632 C24.1275153,22.4538947 24.4195749,22.7368421 24.7794341,22.7368421 L26.7351906,22.7368421 C27.0937459,22.7368421 27.3871094,22.4538947 27.3871094,22.1052632 L27.4379591,19.5271579 C28.2346039,17.6867368 28.6961624,16.3136842 28.6961624,14.7435789 C28.6961624,13.1406316 28.3623799,11.8863158 27.5409622,10.4122105 L27.2958408,9.97136842 C26.2866704,8.15494737 25.029771,5.89389474 23.736364,3.80336842 C22.6802556,2.09684211 22.2539006,1.896 21.2108305,1.71410526 C19.3437351,1.38947368 17.6031118,1.26315789 15.0006519,1.26315789 C12.3968882,1.26315789 10.6549611,1.38947368 8.79047329,1.71410526 C7.74609935,1.896 7.31974445,2.09684211 6.26363597,3.80336842 C4.98587509,5.86863158 3.74201399,8.10568421 2.74197053,9.90315789 L2.45773393,10.4122105 C1.63762006,11.8863158 1.30383763,13.1418947 1.30383763,14.7435789 C1.30383763,16.3149474 1.76539615,17.688 2.56204094,19.5271579 L2.61419445,19.7709474 L2.61419445,22.1052632 C2.61419445,22.4538947 2.90625407,22.7368421 3.26611326,22.7368421 L5.2218697,22.7368421 C5.58042505,22.7368421 5.87378852,22.4538947 5.87378852,22.1052632 L5.87378852,20.2105263 Z M26.7351906,24 L24.7794341,24 C23.6998566,24 22.8236777,23.1498947 22.8236777,22.1052632 L22.8236777,21.4736842 L7.17762615,21.4736842 L7.17762615,22.1052632 C7.17762615,23.1498947 6.30014342,24 5.2218697,24 L3.26611326,24 C2.1865357,24 1.31035682,23.1498947 1.31035682,22.1052632 L1.31035682,19.8985263 C0.47850841,17.9684211 0,16.4917895 0,14.7435789 C0,12.9397895 0.391151289,11.4644211 1.31035682,9.81347368 L1.59459342,9.30442105 C1.6597853,9.18694737 1.72497718,9.06694737 1.79277674,8.94694737 C0.666261028,8.71957895 0,8.07663158 0,7.15452632 L0,6.50905263 C0,5.81305263 0.584119258,5.24589474 1.30383763,5.24589474 L3.89065148,5.24589474 C4.29875266,4.54610526 4.71989222,3.84126316 5.14624712,3.15410526 C6.29753575,1.29347368 6.99900039,0.741473684 8.56099787,0.471157895 C10.5076275,0.132631579 12.3134426,0 15.0006519,0 C17.6865574,0 19.4923725,0.132631579 21.440306,0.471157895 C23.0009996,0.741473684 23.7024643,1.29347368 24.8537529,3.15410526 C25.2344735,3.768 25.6112825,4.39705263 25.9789648,5.02357895 L28.5162328,5.02357895 C29.2346473,5.02357895 29.8200704,5.58947368 29.8200704,6.28673684 L29.8200704,6.93094737 C29.8200704,7.83915789 29.1733669,8.47705263 28.0768395,8.71326316 C28.2020079,8.93810526 28.3245686,9.15915789 28.4445217,9.37263158 L28.6883393,9.81347368 C29.6088487,11.4644211 30,12.9385263 30,14.7435789 C30,16.4905263 29.5214916,17.9671579 28.690947,19.8985263 L28.690947,22.1052632 C28.690947,23.1498947 27.8134643,24 26.7351906,24 L26.7351906,24 Z" id="Fill-1" fill="#FFFFFF" mask="url(#mask-2)"></path>
                            </g>
                        </g>
                    </g>
                </g>
            </g>
        </g>
    </g>
</svg>
