<svg width="51px" height="42px" viewBox="0 0 51 42" version="1.1" xmlns="http://www.w3.org/2000/svg" xmlns:xlink="http://www.w3.org/1999/xlink">
    <!-- Generator: Sketch 46.2 (44496) - http://www.bohemiancoding.com/sketch -->
    <desc>Created with Sketch.</desc>
    <defs>
        <polygon id="path-1" points="50.812425 0 0.000883333333 0 0.000883333333 41.9997789 50.812425 41.9997789"></polygon>
    </defs>
    <g id="Page-1" stroke="none" stroke-width="1" fill="none" fill-rule="evenodd">
        <g id="bron-tumeda-taustaga" transform="translate(-1094.000000, -734.000000)">
            <g id="SIDEBAR" transform="translate(970.000000, 400.000000)">
                <g id="Page-1" transform="translate(124.000000, 334.000000)">
                    <mask id="mask-2" fill="white">
                        <use xlink:href="#path-1"></use>
                    </mask>
                    <g id="Clip-2"></g>
                    <path d="M11.65205,13.4530421 C18.694425,14.5118842 32.116675,14.5118842 39.1634667,13.4530421 C38.5340917,12.0582 37.4343417,9.77914737 36.2197583,7.98198947 C35.9370917,7.56862105 35.5108833,7.28788421 35.018425,7.19946316 C31.9598833,6.64904211 29.175175,6.42356842 25.4077583,6.42356842 C21.6381333,6.42356842 18.853425,6.64904211 15.7948833,7.19946316 C15.30905,7.28567368 14.8718,7.57083158 14.5957583,7.98198947 C13.3789667,9.77914737 12.2792167,12.0582 11.65205,13.4530421 L11.65205,13.4530421 Z M25.4077583,16.5124105 C19.4298,16.5124105 13.4783417,16.0835684 9.87213333,15.3938842 L8.55155,15.1418842 L9.05505,13.8929368 C9.12350833,13.7249368 10.7554667,9.71504211 12.76505,6.74409474 C13.3767583,5.8422 14.3373833,5.21441053 15.4062167,5.02430526 C18.5994667,4.44956842 21.4968,4.21304211 25.4077583,4.21304211 C29.3143,4.21304211 32.2138417,4.44956842 35.4093,5.02430526 C36.4737167,5.21662105 37.4343417,5.8422 38.04605,6.73967368 C40.0578417,9.71504211 41.6898,13.7249368 41.7582583,13.8929368 L42.2639667,15.1418842 L40.9433833,15.3938842 C37.3349667,16.0835684 31.3835083,16.5124105 25.4077583,16.5124105 L25.4077583,16.5124105 Z M8.84525833,22.1050421 C7.62625833,22.1050421 6.636925,23.0975684 6.636925,24.3155684 C6.636925,25.5335684 7.62625833,26.5260947 8.84525833,26.5260947 C10.06205,26.5260947 11.0535917,25.5335684 11.0535917,24.3155684 C11.0535917,23.0975684 10.06205,22.1050421 8.84525833,22.1050421 L8.84525833,22.1050421 Z M8.84525833,28.7366211 C6.40725833,28.7366211 4.42859167,26.7537789 4.42859167,24.3155684 C4.42859167,21.8773579 6.40725833,19.8945158 8.84525833,19.8945158 C11.28105,19.8945158 13.261925,21.8773579 13.261925,24.3155684 C13.261925,26.7537789 11.28105,28.7366211 8.84525833,28.7366211 L8.84525833,28.7366211 Z M33.136925,28.7366211 L17.6785917,28.7366211 C16.4595917,28.7366211 15.4702583,27.7440947 15.4702583,26.5260947 C15.4702583,25.3080947 16.4595917,24.3155684 17.6785917,24.3155684 L33.136925,24.3155684 C34.3537167,24.3155684 35.3452583,25.3080947 35.3452583,26.5260947 C35.3452583,27.7440947 34.3537167,28.7366211 33.136925,28.7366211 L33.136925,28.7366211 Z M41.9702583,22.1050421 C40.7512583,22.1050421 39.761925,23.0975684 39.761925,24.3155684 C39.761925,25.5335684 40.7512583,26.5260947 41.9702583,26.5260947 C43.18705,26.5260947 44.1785917,25.5335684 44.1785917,24.3155684 C44.1785917,23.0975684 43.18705,22.1050421 41.9702583,22.1050421 L41.9702583,22.1050421 Z M41.9702583,28.7366211 C39.5322583,28.7366211 37.5535917,26.7537789 37.5535917,24.3155684 C37.5535917,21.8773579 39.5322583,19.8945158 41.9702583,19.8945158 C44.40605,19.8945158 46.386925,21.8773579 46.386925,24.3155684 C46.386925,26.7537789 44.40605,28.7366211 41.9702583,28.7366211 L41.9702583,28.7366211 Z M45.2915917,11.0015684 L46.47305,13.1789368 C47.2238833,13.1082 48.2993417,12.8738842 48.2993417,12.1289368 L48.2993417,11.0015684 L45.2915917,11.0015684 Z M2.20921667,11.3906211 L2.20921667,12.5202 C2.20921667,13.2651474 3.28246667,13.4994632 4.0333,13.5702 L5.21475833,11.3906211 L2.20921667,11.3906211 Z M9.949425,35.3682 L40.8660917,35.3682 L40.8660917,38.6839895 C40.8660917,39.2940947 41.3607583,39.7892526 41.9702583,39.7892526 L45.2827583,39.7892526 C45.89005,39.7892526 46.386925,39.2940947 46.386925,38.6839895 L46.47305,34.1723053 C47.8223417,30.9515684 48.6040917,28.5487263 48.6040917,25.8010421 C48.6040917,22.9958842 48.0387583,20.8008316 46.6475083,18.2211474 L46.2323417,17.4496737 C44.5230917,14.2709368 42.3942583,10.3140947 40.2035917,6.65567368 C38.4148417,3.66925263 37.6927167,3.31777895 35.92605,2.99946316 C32.7637167,2.43135789 29.8155917,2.21030526 25.4077583,2.21030526 C20.9977167,2.21030526 18.0473833,2.43135789 14.8894667,2.99946316 C13.1205917,3.31777895 12.3984667,3.66925263 10.6097167,6.65567368 C8.44555,10.2698842 6.3388,14.1847263 4.64500833,17.3303053 L4.16359167,18.2211474 C2.77455,20.8008316 2.20921667,22.9980947 2.20921667,25.8010421 C2.20921667,28.5509368 2.99096667,30.9537789 4.34025833,34.1723053 L4.42859167,34.5989368 L4.42859167,38.6839895 C4.42859167,39.2940947 4.92325833,39.7892526 5.53275833,39.7892526 L8.84525833,39.7892526 C9.45255,39.7892526 9.949425,39.2940947 9.949425,38.6839895 L9.949425,35.3682 Z M45.2827583,41.9997789 L41.9702583,41.9997789 C40.1417583,41.9997789 38.6577583,40.5120947 38.6577583,38.6839895 L38.6577583,37.5787263 L12.1577583,37.5787263 L12.1577583,38.6839895 C12.1577583,40.5120947 10.67155,41.9997789 8.84525833,41.9997789 L5.53275833,41.9997789 C3.70425833,41.9997789 2.22025833,40.5120947 2.22025833,38.6839895 L2.22025833,34.8222 C0.811341667,31.4445158 0.000883333333,28.8604105 0.000883333333,25.8010421 C0.000883333333,22.6444105 0.663383333,20.0625158 2.22025833,17.1733579 L2.701675,16.2825158 C2.81209167,16.0769368 2.92250833,15.8669368 3.03734167,15.6569368 C1.12934167,15.2590421 0.000883333333,14.1338842 0.000883333333,12.5202 L0.000883333333,11.3906211 C0.000883333333,10.1726211 0.990216667,9.18009474 2.20921667,9.18009474 L6.59055,9.18009474 C7.28175833,7.95546316 7.99505,6.72198947 8.717175,5.51946316 C10.6671333,2.26335789 11.8552167,1.29735789 14.5008,0.824305263 C17.7978417,0.231884211 20.8563833,-0.000221052632 25.4077583,-0.000221052632 C29.956925,-0.000221052632 33.0154667,0.231884211 36.3147167,0.824305263 C38.9580917,1.29735789 40.146175,2.26335789 42.0961333,5.51946316 C42.7409667,6.59377895 43.379175,7.69462105 44.001925,8.79104211 L48.2993417,8.79104211 C49.5161333,8.79104211 50.507675,9.78135789 50.507675,11.0015684 L50.507675,12.1289368 C50.507675,13.7183053 49.4123417,14.8346211 47.5551333,15.2479895 C47.7671333,15.6414632 47.9747167,16.0283053 48.1778833,16.4018842 L48.5908417,17.1733579 C50.149925,20.0625158 50.812425,22.6422 50.812425,25.8010421 C50.812425,28.8582 50.0019667,31.4423053 48.5952583,34.8222 L48.5952583,38.6839895 C48.5952583,40.5120947 47.10905,41.9997789 45.2827583,41.9997789 L45.2827583,41.9997789 Z" id="Fill-1" fill="#FFFFFF" mask="url(#mask-2)"></path>
                </g>
            </g>
        </g>
    </g>
</svg>
