<svg width="25px" height="28px" viewBox="0 0 25 28" version="1.1" xmlns="http://www.w3.org/2000/svg" xmlns:xlink="http://www.w3.org/1999/xlink">
    <!-- Generator: Sketch 46.2 (44496) - http://www.bohemiancoding.com/sketch -->
    <desc>Created with Sketch.</desc>
    <defs>
        <polygon id="path-1" points="24.9727543 27.678267 1.14285722e-05 27.678267 1.14285722e-05 0.0192265614 24.9727543 0.0192265614 24.9727543 27.678267"></polygon>
    </defs>
    <g id="Page-1" stroke="none" stroke-width="1" fill="none" fill-rule="evenodd">
        <g id="bron-tumeda-taustaga" transform="translate(-996.000000, -617.000000)">
            <g id="SIDEBAR" transform="translate(970.000000, 400.000000)">
                <g id="time" transform="translate(26.000000, 208.000000)">
                    <g id="Group-7" transform="translate(0.000000, 9.000000)">
                        <g id="Group-3" transform="translate(0.000000, 0.009293)">
                            <mask id="mask-2" fill="white">
                                <use xlink:href="#path-1"></use>
                            </mask>
                            <g id="Clip-2"></g>
                            <path d="M12.4863829,4.72054127 C18.2989829,4.72054127 23.0352114,9.44574309 23.0352114,15.2448389 C23.0352114,21.0439061 18.2989829,25.769108 12.4863829,25.769108 C6.67378286,25.769108 1.93755429,21.0439061 1.93755429,15.2448389 C1.93755429,9.42188448 6.67378286,4.72054127 12.4863829,4.72054127 M1.14285722e-05,15.2209518 C1.14285722e-05,22.0939415 5.59735429,27.6782813 12.4863829,27.6782813 C19.3754114,27.6782813 24.9727543,22.0939415 24.9727543,15.2209518 C24.9727543,11.8083155 23.5853829,8.68206806 21.3368971,6.4387887 L22.3176114,5.46035769 L22.7720971,5.91378528 C22.96344,6.10471117 23.2026686,6.2001456 23.4657829,6.2001456 C23.7288971,6.2001456 23.9680971,6.10471117 24.1594971,5.91378528 C24.5421829,5.53193352 24.5421829,4.91146715 24.1594971,4.52964389 L21.88704,2.26250592 C21.5043257,1.88065416 20.8823829,1.88065416 20.4996686,2.26250592 C20.1169543,2.64432918 20.1169543,3.26482405 20.4996686,3.64664731 L20.9541543,4.10007491 L19.8777257,5.17396886 C18.0598114,3.83754469 15.8830686,3.00229384 13.49104,2.81136795 L13.49104,1.9761171 L15.6677829,1.9761171 C16.2179257,1.9761171 16.6484971,1.54654811 16.6484971,0.997686082 C16.6484971,0.448795546 16.2179257,0.0192265614 15.6677829,0.0192265614 L9.20932571,0.0192265614 C8.65915429,0.0192265614 8.22858286,0.448795546 8.22858286,0.997686082 C8.22858286,1.54654811 8.65915429,1.9761171 9.20932571,1.9761171 L11.5295829,1.9761171 L11.5295829,2.81136795 C5.07109714,3.31254127 1.14285722e-05,8.68206806 1.14285722e-05,15.2209518" id="Fill-1" fill="#FFFFFF" mask="url(#mask-2)"></path>
                        </g>
                        <path d="M12.4863829,16.0416338 L16.67244,16.0416338 C17.2226114,16.0416338 17.6531543,15.6120933 17.6531543,15.0632027 C17.6531543,14.5143122 17.2226114,14.0847717 16.67244,14.0847717 L13.4670971,14.0847717 L13.4670971,9.04932247 C13.4670971,8.50043193 13.0365543,8.07089145 12.4863829,8.07089145 C11.9362114,8.07089145 11.5056686,8.50043193 11.5056686,9.04932247 L11.5056686,15.0870613 C11.5056686,15.6120933 11.9362114,16.0416623 12.4863829,16.0416623 L12.4863829,16.0416338 Z" id="Fill-4" fill="#FFFFFF"></path>
                    </g>
                </g>
            </g>
        </g>
    </g>
</svg>
