<svg width="24px" height="27px" viewBox="0 0 24 27" version="1.1" xmlns="http://www.w3.org/2000/svg" xmlns:xlink="http://www.w3.org/1999/xlink">
    <!-- Generator: Sketch 46.2 (44496) - http://www.bohemiancoding.com/sketch -->
    <desc>Created with Sketch.</desc>
    <defs></defs>
    <g id="Page-1" stroke="none" stroke-width="1" fill="none" fill-rule="evenodd">
        <g id="bron-tumeda-taustaga" transform="translate(-995.000000, -498.000000)" fill="#FFFFFF">
            <g id="SIDEBAR" transform="translate(970.000000, 400.000000)">
                <g id="calendar" transform="translate(25.000000, 93.000000)">
                    <g id="Group-4" transform="translate(0.000000, 5.000000)">
                        <path d="M1.68528814,14.553135 L5.93410169,14.553135 L5.93410169,10.29294 L1.68528814,10.29294 L1.68528814,14.553135 Z M7.1239322,14.543955 L11.3788475,14.543955 L11.3788475,10.30779 L7.1239322,10.30779 L7.1239322,14.543955 Z M12.5339661,14.53383 L16.8042034,14.53383 L16.8042034,10.29429 L12.5339661,10.29429 L12.5339661,14.53383 Z M17.9651525,14.52654 L22.2206102,14.52654 L22.2206102,10.29024 L17.9651525,10.29024 L17.9651525,14.52654 Z M1.67783051,19.942335 L5.94142373,19.942335 L5.94142373,15.709545 L1.67783051,15.709545 L1.67783051,19.942335 Z M7.12447458,19.943415 L11.3793898,19.943415 L11.3793898,15.70833 L7.12447458,15.70833 L7.12447458,19.943415 Z M12.5421017,19.949625 L16.7962034,19.949625 L16.7962034,15.70212 L12.5421017,15.70212 L12.5421017,19.949625 Z M17.9568814,19.93464 L22.2048814,19.93464 L22.2048814,15.693345 L17.9568814,15.693345 L17.9568814,19.93464 Z M1.69355932,25.32681 L5.94969492,25.32681 L5.94969492,21.09051 L1.69355932,21.09051 L1.69355932,25.32681 Z M7.1019661,25.334235 L11.3568814,25.334235 L11.3568814,21.09375 L7.1019661,21.09375 L7.1019661,25.334235 Z M12.5270508,25.34058 L16.7869831,25.34058 L16.7869831,21.1113 L12.5270508,21.1113 L12.5270508,25.34058 Z M17.9559322,25.335585 L22.2296949,25.335585 L22.2296949,21.0924 L17.9559322,21.0924 L17.9559322,25.335585 Z M22.2562712,27 L1.64610169,27 C0.414508475,26.469855 -0.0123389831,25.535655 0.000271186441,24.21279 C0.0471864407,19.28772 0.0189830508,14.361975 0.0189830508,9.436365 L0.0189830508,8.675505 L23.8833898,8.675505 L23.8833898,9.43542 C23.8833898,14.360895 23.8555932,19.28664 23.9019661,24.21171 C23.9144407,25.534035 23.4842034,26.46729 22.2562712,27 L22.2562712,27 Z" id="Fill-1"></path>
                        <path d="M5.71510508,4.0100535 C4.92744407,4.6684485 4.73829153,5.2951185 5.02507119,5.9995485 C5.28947797,6.6491685 5.92798644,7.0552485 6.62181695,7.0151535 C7.32920678,6.9741135 7.94818983,6.4534185 8.11578305,5.7583035 C8.27157966,5.1116535 8.01435932,4.5206235 7.33991864,4.0883535 C7.33991864,4.5235935 7.34547797,4.9181985 7.33856271,5.3125335 C7.32947797,5.8390335 7.07130847,6.1900335 6.53151186,6.1930035 C5.99320678,6.1957035 5.72595254,5.8530735 5.71646102,5.3231985 C5.70954576,4.9268385 5.71510508,4.5303435 5.71510508,4.0100535 L5.71510508,4.0100535 Z M16.5625627,4.0100535 C15.7749017,4.6684485 15.5857492,5.2951185 15.8725288,5.9995485 C16.1368,6.6491685 16.7754441,7.0552485 17.4694102,7.0151535 C18.1765288,6.9741135 18.7956475,6.4534185 18.9631051,5.7583035 C19.1190373,5.1116535 18.8616814,4.5206235 18.1873763,4.0883535 C18.1873763,4.5235935 18.1928,4.9181985 18.1861559,5.3125335 C18.1769356,5.8390335 17.9189017,6.1900335 17.3789695,6.1930035 C16.8408,6.1957035 16.5732746,5.8530735 16.5640542,5.3231985 C16.5570034,4.9268385 16.5625627,4.5303435 16.5625627,4.0100535 L16.5625627,4.0100535 Z M17.6460881,1.35e-05 C18.0745627,0.2625885 18.2192407,0.6430185 18.1961898,1.1390085 C18.165139,1.8084735 18.188461,2.4805035 18.188461,3.2400135 C19.2581559,3.2400135 20.2873085,3.2389335 21.3167322,3.2402835 C23.0631729,3.2424435 23.880122,4.0571685 23.8832407,5.7983985 C23.8841898,6.3567585 23.8833763,6.9149835 23.8833763,7.5164085 L0.0597830508,7.5164085 C0.0597830508,6.6771135 -0.0249627119,5.8229685 0.0812067797,4.9929885 C0.213410169,3.9590235 1.11442712,3.2643135 2.18005424,3.2462235 C3.32771525,3.2266485 4.47591864,3.2417685 5.71388475,3.2417685 C5.71388475,2.5127685 5.73693559,1.8246735 5.70629153,1.1386035 C5.68405424,0.6430185 5.82398644,0.2606985 6.25625763,1.35e-05 L6.79863051,1.35e-05 C7.22669831,0.2621835 7.37069831,0.6424785 7.34859661,1.1377935 C7.31808814,1.8233235 7.34100339,2.5111485 7.34100339,3.1942485 L16.5613424,3.1942485 C16.5613424,2.4782085 16.5843932,1.8065835 16.5537492,1.1373885 C16.5311051,0.6420735 16.6722576,0.2604285 17.1037153,1.35e-05 L17.6460881,1.35e-05 Z" id="Fill-3"></path>
                    </g>
                </g>
            </g>
        </g>
    </g>
</svg>
