<svg xmlns="http://www.w3.org/2000/svg" width="51" height="62" viewBox="0 0 51 62">
    <path fill="#FFF" fill-rule="evenodd" d="M24.78 62c-4.337 0-8.658-1.13-12.467-3.333C.58 51.882-3.484 36.753 3.257 24.94c2.015-3.531 5.103-6.46 8.931-8.47a3.67 3.67 0 0 1 4.967 1.57 3.717 3.717 0 0 1-1.56 5c-2.581 1.355-4.64 3.289-5.954 5.591-4.719 8.268-1.875 18.859 6.34 23.609a17.564 17.564 0 0 0 13.695 1.646c4.263-1.256 7.703-4.059 9.686-7.893 2.423-4.687 2.236-9.753-.557-15.058-2.286-4.342-5.704-7.597-6.827-8.485a3.667 3.667 0 0 1-.243-.21c-1.859-1.751-3.31-4.336-3.984-7.093-.803-3.284-.422-6.534 1.072-9.152 3.262-5.714 10.534-7.693 16.212-4.41a11.864 11.864 0 0 1 5.549 7.246 11.943 11.943 0 0 1-1.167 9.072 3.668 3.668 0 0 1-5.026 1.367 3.719 3.719 0 0 1-1.358-5.059c.6-1.051.757-2.276.443-3.447a4.501 4.501 0 0 0-8.268-1.077c-.847 1.483-.683 4.935 1.465 7.053 2.008 1.626 5.93 5.58 8.637 10.724 3.939 7.481 4.14 15.072.583 21.95C42.975 55.058 37.95 59.173 31.744 61c-2.273.67-4.621 1-6.965 1"/>
</svg>
