<?xml version="1.0" encoding="UTF-8"?>
<svg width="28px" height="31px" viewBox="0 0 28 31" version="1.1" xmlns="http://www.w3.org/2000/svg" xmlns:xlink="http://www.w3.org/1999/xlink">
    <!-- Generator: Sketch 46.2 (44496) - http://www.bohemiancoding.com/sketch -->
    <title>time-side</title>
    <desc>Created with Sketch.</desc>
    <defs>
        <polygon id="path-1" points="27.6594782 30.6560668 1.26581289e-05 30.6560668 1.26581289e-05 0.0212950742 27.6594782 0.0212950742"></polygon>
    </defs>
    <g id="Page-1" stroke="none" stroke-width="1" fill="none" fill-rule="evenodd">
        <g id="time-side" transform="translate(-6.000000, -4.000000)">
            <rect id="Rectangle-2" x="0" y="0" width="40" height="40"></rect>
            <g id="Group-3" transform="translate(6.000000, 4.010293)">
                <g id="Fill-1-Clipped">
                    <mask id="mask-2" fill="white">
                        <use xlink:href="#path-1"></use>
                    </mask>
                    <g id="path-1"></g>
                    <path d="M13.8297455,5.2284064 C20.2677011,5.2284064 25.5134824,10.4619748 25.5134824,16.8849733 C25.5134824,23.3079401 20.2677011,28.5415086 13.8297455,28.5415086 C7.39178984,28.5415086 2.14600841,23.3079401 2.14600841,16.8849733 C2.14600841,10.4355493 7.39178984,5.2284064 13.8297455,5.2284064 M1.26581289e-05,16.8585163 C1.26581289e-05,24.4709449 6.19955241,30.6560826 13.8297455,30.6560826 C21.4599384,30.6560826 27.6594782,24.4709449 27.6594782,16.8585163 C27.6594782,13.0787274 26.1228448,9.61613883 23.6324529,7.13151355 L24.7186786,6.04781686 L25.2220607,6.55002701 C25.4339894,6.76149389 25.6989557,6.86719575 25.9903775,6.86719575 C26.2817991,6.86719575 26.5467338,6.76149389 26.7587258,6.55002701 C27.1825833,6.12709326 27.1825833,5.43987327 26.7587258,5.01697109 L24.2417836,2.50592035 C23.8178945,2.08298661 23.1290393,2.08298661 22.7051502,2.50592035 C22.2812611,2.92882253 22.2812611,3.61607409 22.7051502,4.03897626 L23.2085323,4.54118642 L22.0162948,5.73061654 C20.002798,4.25041157 17.5918677,3.32529925 14.9424898,3.11383236 L14.9424898,2.18872004 L17.3534202,2.18872004 C17.9627508,2.18872004 18.4396458,1.71293535 18.4396458,1.10502334 C18.4396458,0.497079756 17.9627508,0.0212950742 17.3534202,0.0212950742 L10.2001221,0.0212950742 C9.59075985,0.0212950742 9.11386488,0.497079756 9.11386488,1.10502334 C9.11386488,1.71293535 9.59075985,2.18872004 10.2001221,2.18872004 L12.770007,2.18872004 L12.770007,3.11383236 C5.61667725,3.66892502 1.26581289e-05,9.61613883 1.26581289e-05,16.8585163" id="Fill-1" fill="#FFFFFF" fill-rule="nonzero" mask="url(#mask-2)"></path>
                </g>
            </g>
            <path d="M19.8297455,21.7674923 L24.4661646,21.7674923 C25.0755268,21.7674923 25.5523902,21.2917392 25.5523902,20.6837955 C25.5523902,20.075852 25.0755268,19.6000989 24.4661646,19.6000989 L20.915971,19.6000989 L20.915971,14.0229047 C20.915971,13.4149612 20.4391077,12.939208 19.8297455,12.939208 C19.2203831,12.939208 18.7435198,13.4149612 18.7435198,14.0229047 L18.7435198,20.710221 C18.7435198,21.2917392 19.2203831,21.7675239 19.8297455,21.7675239 L19.8297455,21.7674923 Z" id="Fill-4" fill="#FFFFFF" fill-rule="nonzero"></path>
        </g>
    </g>
</svg>